<svg width="60" height="60" viewBox="0 0 60 60" fill="none" xmlns="http://www.w3.org/2000/svg">
<path d="M25.5761 1.95526C26.1368 1.33935 26.8199 0.847297 27.5817 0.510605C28.3434 0.173913 29.1671 0 30 0C30.8329 0 31.6566 0.173913 32.4184 0.510605C33.1801 0.847297 33.8632 1.33935 34.4239 1.95526L37.4748 5.30531C38.0672 5.95563 38.7957 6.4673 39.6084 6.80387C40.4212 7.14045 41.2981 7.29364 42.1769 7.25253L46.7024 7.04315C47.534 7.00397 48.3647 7.1388 49.1412 7.43902C49.9177 7.73924 50.623 8.19825 51.212 8.78666C51.801 9.37507 52.2607 10.0799 52.5616 10.8562C52.8626 11.6324 52.9982 12.4629 52.9599 13.2946L52.7475 17.8232C52.7064 18.7019 52.8596 19.5788 53.1961 20.3916C53.5327 21.2043 54.0444 21.9328 54.6947 22.5252L58.0447 25.5761C58.6607 26.1368 59.1527 26.8199 59.4894 27.5817C59.8261 28.3434 60 29.1671 60 30C60 30.8329 59.8261 31.6566 59.4894 32.4184C59.1527 33.1801 58.6607 33.8632 58.0447 34.4239L54.6947 37.4748C54.0444 38.0672 53.5327 38.7957 53.1961 39.6084C52.8596 40.4212 52.7064 41.2981 52.7475 42.1769L52.9568 46.7024C52.996 47.534 52.8612 48.3647 52.561 49.1412C52.2608 49.9177 51.8018 50.623 51.2133 51.212C50.6249 51.801 49.9201 52.2607 49.1438 52.5616C48.3676 52.8626 47.5371 52.9982 46.7054 52.9599L42.1769 52.7475C41.2981 52.7064 40.4212 52.8596 39.6084 53.1961C38.7957 53.5327 38.0672 54.0444 37.4748 54.6947L34.4239 58.0447C33.8632 58.6607 33.1801 59.1527 32.4184 59.4894C31.6566 59.8261 30.8329 60 30 60C29.1671 60 28.3434 59.8261 27.5817 59.4894C26.8199 59.1527 26.1368 58.6607 25.5761 58.0447L22.5252 54.6947C21.9328 54.0444 21.2043 53.5327 20.3916 53.1961C19.5788 52.8596 18.7019 52.7064 17.8232 52.7475L13.2976 52.9568C12.466 52.996 11.6353 52.8612 10.8588 52.561C10.0823 52.2608 9.37696 51.8018 8.78798 51.2133C8.199 50.6249 7.73933 49.9201 7.43836 49.1438C7.1374 48.3676 7.00177 47.5371 7.04016 46.7054L7.25253 42.1769C7.29364 41.2981 7.14045 40.4212 6.80387 39.6084C6.4673 38.7957 5.95563 38.0672 5.30531 37.4748L1.95526 34.4239C1.33935 33.8632 0.847297 33.1801 0.510605 32.4184C0.173913 31.6566 0 30.8329 0 30C0 29.1671 0.173913 28.3434 0.510605 27.5817C0.847297 26.8199 1.33935 26.1368 1.95526 25.5761L5.30531 22.5252C5.95563 21.9328 6.4673 21.2043 6.80387 20.3916C7.14045 19.5788 7.29364 18.7019 7.25253 17.8232L7.04315 13.2976C7.00397 12.466 7.1388 11.6353 7.43902 10.8588C7.73924 10.0823 8.19825 9.37696 8.78666 8.78798C9.37507 8.199 10.0799 7.73933 10.8562 7.43836C11.6324 7.1374 12.4629 7.00177 13.2946 7.04016L17.8232 7.25253C18.7019 7.29364 19.5788 7.14045 20.3916 6.80387C21.2043 6.4673 21.9328 5.95563 22.5252 5.30531L25.5761 1.95526Z" fill="#7456FF"/>
<path d="M21.0266 29.9998L27.0089 35.9821L38.9733 24.0176" stroke="#161325" stroke-width="5" stroke-linecap="round" stroke-linejoin="round"/>
</svg>
