<svg width="60" height="60" viewBox="0 0 60 60" fill="none" xmlns="http://www.w3.org/2000/svg">
<path d="M0 31.875C-1.13187e-08 31.1363 0.149612 30.4049 0.440292 29.7224C0.730972 29.0399 1.15703 28.4199 1.69414 27.8975C2.23124 27.3752 2.86888 26.9609 3.57064 26.6782C4.27241 26.3955 5.02456 26.25 5.78414 26.25C6.54372 26.25 7.29587 26.3955 7.99763 26.6782C8.6994 26.9609 9.33704 27.3752 9.87414 27.8975C10.4113 28.4199 10.8373 29.0399 11.128 29.7224C11.4187 30.4049 11.5683 31.1363 11.5683 31.875V54.375C11.5683 55.8668 10.9589 57.2976 9.87414 58.3525C8.78941 59.4074 7.31819 60 5.78414 60C4.25009 60 2.77887 59.4074 1.69414 58.3525C0.609399 57.2976 2.28591e-08 55.8668 0 54.375V31.875ZM15.4244 31.2488V51.6112C15.4237 53.005 15.8224 54.3713 16.5757 55.557C17.329 56.7427 18.4072 57.7007 19.6892 58.3237L19.882 58.4175C22.0217 59.4575 24.3808 59.9993 26.7729 60H47.6575C49.441 60.0007 51.1697 59.4002 52.5491 58.3007C53.9286 57.2013 54.8735 55.6708 55.2231 53.97L59.8504 31.47C60.074 30.382 60.0466 29.2593 59.7702 28.1829C59.4938 27.1065 58.9753 26.1031 58.2519 25.245C57.5286 24.387 56.6186 23.6958 55.5874 23.2211C54.5562 22.7464 53.4295 22.5001 52.2886 22.5H38.5609V7.5C38.5609 5.51088 37.7484 3.60322 36.3021 2.1967C34.8558 0.790176 32.8941 0 30.8487 0C29.826 0 28.8452 0.395088 28.1221 1.09835C27.3989 1.80161 26.9926 2.75544 26.9926 3.75V6.25125C26.9926 9.4968 25.9102 12.6548 23.9078 15.2512L18.5092 22.2488C16.5068 24.8452 15.4244 28.0032 15.4244 31.2488Z" fill="#7456FF"/>
</svg>
