<svg width="60" height="60" viewBox="0 0 60 60" fill="none" xmlns="http://www.w3.org/2000/svg">
<path d="M59.3598 23.3732C57.975 16.8576 54.3027 10.9272 49.0179 6.67499C43.6135 2.35086 36.8974 -0.00341599 29.976 3.72021e-06C21.8171 3.72021e-06 14.1965 3.1433 8.49923 8.85132C2.99344 14.3745 -0.0239637 21.6669 0.000143339 29.3798C0.000330779 35.0347 1.66048 40.5651 4.77469 45.2852L5.35727 46.0954L2.143 59.9999L17.518 56.1749C17.518 56.1749 17.826 56.278 18.0537 56.365C18.2814 56.4521 20.2407 57.2034 22.3193 57.7847C24.047 58.2668 27.6416 58.99 30.4581 58.99C38.4469 58.99 45.9067 55.8963 51.4621 50.2767C56.9679 44.7012 60 37.2883 60 29.3959C60.0004 27.3713 59.7858 25.3524 59.3598 23.3732ZM17.143 34.2856C16.2953 34.2856 15.4667 34.0343 14.762 33.5634C14.0572 33.0924 13.5079 32.4231 13.1835 31.64C12.8591 30.8569 12.7742 29.9952 12.9396 29.1638C13.105 28.3325 13.5131 27.5688 14.1125 26.9695C14.7119 26.3701 15.4755 25.9619 16.3069 25.7966C17.1382 25.6312 17.9999 25.7161 18.783 26.0405C19.5661 26.3648 20.2355 26.9141 20.7064 27.6189C21.1773 28.3237 21.4287 29.1523 21.4287 29.9999C21.4287 31.1366 20.9771 32.2267 20.1734 33.0304C19.3697 33.8341 18.2796 34.2856 17.143 34.2856ZM30.0001 34.2856C29.1524 34.2856 28.3238 34.0343 27.6191 33.5634C26.9143 33.0924 26.365 32.4231 26.0406 31.64C25.7162 30.8569 25.6314 29.9952 25.7967 29.1638C25.9621 28.3325 26.3703 27.5688 26.9696 26.9695C27.569 26.3701 28.3326 25.9619 29.164 25.7966C29.9953 25.6312 30.857 25.7161 31.6401 26.0405C32.4233 26.3648 33.0926 26.9141 33.5635 27.6189C34.0344 28.3237 34.2858 29.1523 34.2858 29.9999C34.2858 31.1366 33.8342 32.2267 33.0305 33.0304C32.2268 33.8341 31.1367 34.2856 30.0001 34.2856ZM42.8572 34.2856C42.0096 34.2856 41.181 34.0343 40.4762 33.5634C39.7714 33.0924 39.2221 32.4231 38.8977 31.64C38.5733 30.8569 38.4885 29.9952 38.6538 29.1638C38.8192 28.3325 39.2274 27.5688 39.8267 26.9695C40.4261 26.3701 41.1897 25.9619 42.0211 25.7966C42.8524 25.6312 43.7141 25.7161 44.4973 26.0405C45.2804 26.3648 45.9497 26.9141 46.4206 27.6189C46.8915 28.3237 47.1429 29.1523 47.1429 29.9999C47.1429 31.1366 46.6914 32.2267 45.8876 33.0304C45.0839 33.8341 43.9938 34.2856 42.8572 34.2856Z" fill="#7456FF"/>
</svg>
