<svg width="18" height="22" viewBox="0 0 18 22" fill="none" xmlns="http://www.w3.org/2000/svg">
<path d="M1.11768 13.6145C0.430998 12.325 0.0728779 10.886 0.0750332 9.425C0.0750332 4.49578 4.07081 0.5 9.00004 0.5C13.9293 0.5 17.925 4.49578 17.925 9.425C17.9286 11.5304 17.1844 13.5687 15.825 15.1764L15.8145 15.1895C15.8109 15.1927 15.8077 15.1969 15.8051 15.2H15.825L10.5288 20.8228C10.3325 21.0312 10.0956 21.1972 9.83277 21.3107C9.56991 21.4242 9.28662 21.4828 9.0003 21.4828C8.71398 21.4828 8.43069 21.4242 8.16783 21.3107C7.90497 21.1972 7.66809 21.0312 7.47176 20.8228L2.17503 15.2H2.19498L2.18658 15.19L2.18554 15.189C2.14773 15.1438 2.10993 15.0987 2.07266 15.0525C1.70851 14.6049 1.38852 14.1232 1.11716 13.614L1.11768 13.6145ZM8.99794 12.8375C9.83337 12.8375 10.6346 12.5056 11.2253 11.9149C11.8161 11.3241 12.1479 10.5229 12.1479 9.6875C12.1479 8.85207 11.8161 8.05085 11.2253 7.46011C10.6346 6.86937 9.83337 6.5375 8.99794 6.5375C8.1625 6.5375 7.36129 6.86937 6.77055 7.46011C6.17981 8.05085 5.84793 8.85207 5.84793 9.6875C5.84793 10.5229 6.17981 11.3241 6.77055 11.9149C7.36129 12.5056 8.1625 12.8375 8.99794 12.8375Z" fill="#F8F8F8"/>
</svg>
