<svg width="14" height="24" viewBox="0 0 14 24" fill="none" xmlns="http://www.w3.org/2000/svg">
<path d="M13.38 22.58C13.5654 22.3949 13.7125 22.1752 13.8129 21.9332C13.9132 21.6913 13.9649 21.4319 13.9649 21.17C13.9649 20.908 13.9132 20.6487 13.8129 20.4067C13.7125 20.1648 13.5654 19.945 13.38 19.76L5.62002 12L13.38 4.23995C13.754 3.866 13.9641 3.35881 13.9641 2.82996C13.9641 2.3011 13.754 1.79391 13.38 1.41995C13.0061 1.046 12.4989 0.835914 11.97 0.835914C11.4412 0.835914 10.934 1.046 10.56 1.41995L1.38002 10.6C1.19461 10.785 1.04752 11.0048 0.947152 11.2467C0.846789 11.4887 0.795131 11.748 0.795131 12.01C0.795131 12.2719 0.846789 12.5313 0.947152 12.7732C1.04751 13.0151 1.19461 13.2349 1.38002 13.42L10.56 22.6C11.32 23.36 12.6 23.36 13.38 22.58Z" fill="white"/>
</svg>
