<svg width="14" height="24" viewBox="0 0 14 24" fill="none" xmlns="http://www.w3.org/2000/svg">
<path d="M0.619984 22.58C0.434577 22.3949 0.287481 22.1752 0.187118 21.9332C0.0867555 21.6913 0.0350951 21.4319 0.035095 21.17C0.035095 20.908 0.0867554 20.6487 0.187118 20.4067C0.287481 20.1648 0.434576 19.945 0.619983 19.76L8.37998 12L0.619982 4.23995C0.246027 3.866 0.0359403 3.35881 0.0359403 2.82996C0.0359403 2.3011 0.246027 1.79391 0.619982 1.41995C0.993937 1.046 1.50113 0.835914 2.02998 0.835914C2.55883 0.835914 3.06603 1.046 3.43998 1.41995L12.62 10.6C12.8054 10.785 12.9525 11.0048 13.0528 11.2467C13.1532 11.4887 13.2049 11.748 13.2049 12.01C13.2049 12.2719 13.1532 12.5313 13.0528 12.7732C12.9525 13.0151 12.8054 13.2349 12.62 13.42L3.43998 22.6C2.67998 23.36 1.39998 23.36 0.619984 22.58Z" fill="white"/>
</svg>
