<svg width="1028" height="141" viewBox="0 0 1028 141" fill="none" xmlns="http://www.w3.org/2000/svg">
<mask id="path-1-outside-1_165_854" maskUnits="userSpaceOnUse" x="-248" y="-1" width="1277" height="143" fill="black">
<rect fill="white" x="-248" y="-1" width="1277" height="143"/>
<path d="M-50.6 0.399997L-89.6 140H-122.6L-148.8 40.6L-176.2 140L-209 140.2L-246.6 0.399997H-216.6L-192 108.8L-163.6 0.399997H-132.4L-105.6 108.2L-80.8 0.399997H-50.6ZM83.4828 0.399997V140H55.4828V80.6H-4.31719V140H-32.3172V0.399997H-4.31719V57.8H55.4828V0.399997H83.4828ZM222.042 0.399997L174.842 91.4V140H146.842V91.4L99.4422 0.399997H131.042L161.042 64.2L190.842 0.399997H222.042ZM401.647 0.399997V140H373.647V80.6H313.847V140H285.847V0.399997H313.847V57.8H373.647V0.399997H401.647ZM457.206 0.399997V140H429.206V0.399997H457.206ZM556.87 140L526.07 85.6H512.87V140H484.87V0.399997H537.27C548.07 0.399997 557.27 2.33333 564.87 6.19999C572.47 9.93333 578.137 15.0667 581.87 21.6C585.737 28 587.67 35.2 587.67 43.2C587.67 52.4 585.004 60.7333 579.67 68.2C574.337 75.5333 566.404 80.6 555.87 83.4L589.27 140H556.87ZM512.87 64.6H536.27C543.87 64.6 549.537 62.8 553.27 59.2C557.004 55.4667 558.87 50.3333 558.87 43.8C558.87 37.4 557.004 32.4667 553.27 29C549.537 25.4 543.87 23.6 536.27 23.6H512.87V64.6ZM640.995 23V58H687.995V80.2H640.995V117.2H693.995V140H612.995V0.199988H693.995V23H640.995ZM919.297 0.399997V140H891.297V49.2L853.897 140H832.697L795.097 49.2V140H767.097V0.399997H798.897L843.297 104.2L887.697 0.399997H919.297ZM974.98 23V58H1021.98V80.2H974.98V117.2H1027.98V140H946.98V0.199988H1027.98V23H974.98Z"/>
</mask>
<path d="M-50.6 0.399994L-49.6369 0.669067L-49.2823 -0.600006H-50.6V0.399994ZM-89.6 140V141H-88.8411L-88.6369 140.269L-89.6 140ZM-122.6 140L-123.567 140.255L-123.371 141H-122.6V140ZM-148.8 40.6L-147.833 40.3451L-148.778 36.7585L-149.764 40.3343L-148.8 40.6ZM-176.2 140L-176.194 141L-175.437 140.995L-175.236 140.266L-176.2 140ZM-209 140.2L-209.966 140.46L-209.765 141.205L-208.994 141.2L-209 140.2ZM-246.6 0.399994V-0.600006H-247.904L-247.566 0.659721L-246.6 0.399994ZM-216.6 0.399994L-215.625 0.178688L-215.802 -0.600006H-216.6V0.399994ZM-192 108.8L-192.975 109.021L-191.033 109.053L-192 108.8ZM-163.6 0.399994V-0.600006H-164.372L-164.567 0.146561L-163.6 0.399994ZM-132.4 0.399994L-131.43 0.15873L-131.618 -0.600006H-132.4V0.399994ZM-105.6 108.2L-106.57 108.441L-104.625 108.424L-105.6 108.2ZM-80.8 0.399994V-0.600006H-81.5961L-81.7745 0.175797L-80.8 0.399994ZM-51.5631 0.130928L-90.5631 139.731L-88.6369 140.269L-49.6369 0.669067L-51.5631 0.130928ZM-89.6 139H-122.6V141H-89.6V139ZM-121.633 139.745L-147.833 40.3451L-149.767 40.8549L-123.567 140.255L-121.633 139.745ZM-149.764 40.3343L-177.164 139.734L-175.236 140.266L-147.836 40.8657L-149.764 40.3343ZM-176.206 139L-209.006 139.2L-208.994 141.2L-176.194 141L-176.206 139ZM-208.034 139.94L-245.634 0.140274L-247.566 0.659721L-209.966 140.46L-208.034 139.94ZM-246.6 1.39999H-216.6V-0.600006H-246.6V1.39999ZM-217.575 0.621307L-192.975 109.021L-191.025 108.579L-215.625 0.178688L-217.575 0.621307ZM-191.033 109.053L-162.633 0.653435L-164.567 0.146561L-192.967 108.547L-191.033 109.053ZM-163.6 1.39999H-132.4V-0.600006H-163.6V1.39999ZM-133.37 0.641258L-106.57 108.441L-104.63 107.959L-131.43 0.15873L-133.37 0.641258ZM-104.625 108.424L-79.8255 0.624199L-81.7745 0.175797L-106.575 107.976L-104.625 108.424ZM-80.8 1.39999H-50.6V-0.600006H-80.8V1.39999ZM83.4828 0.399994H84.4828V-0.600006H83.4828V0.399994ZM83.4828 140V141H84.4828V140H83.4828ZM55.4828 140H54.4828V141H55.4828V140ZM55.4828 80.6H56.4828V79.6H55.4828V80.6ZM-4.31718 80.6V79.6H-5.31718V80.6H-4.31718ZM-4.31718 140V141H-3.31718V140H-4.31718ZM-32.3172 140H-33.3172V141H-32.3172V140ZM-32.3172 0.399994V-0.600006H-33.3172V0.399994H-32.3172ZM-4.31718 0.399994H-3.31718V-0.600006H-4.31718V0.399994ZM-4.31718 57.8H-5.31718V58.8H-4.31718V57.8ZM55.4828 57.8V58.8H56.4828V57.8H55.4828ZM55.4828 0.399994V-0.600006H54.4828V0.399994H55.4828ZM82.4828 0.399994V140H84.4828V0.399994H82.4828ZM83.4828 139H55.4828V141H83.4828V139ZM56.4828 140V80.6H54.4828V140H56.4828ZM55.4828 79.6H-4.31718V81.6H55.4828V79.6ZM-5.31718 80.6V140H-3.31718V80.6H-5.31718ZM-4.31718 139H-32.3172V141H-4.31718V139ZM-31.3172 140V0.399994H-33.3172V140H-31.3172ZM-32.3172 1.39999H-4.31718V-0.600006H-32.3172V1.39999ZM-5.31718 0.399994V57.8H-3.31718V0.399994H-5.31718ZM-4.31718 58.8H55.4828V56.8H-4.31718V58.8ZM56.4828 57.8V0.399994H54.4828V57.8H56.4828ZM55.4828 1.39999H83.4828V-0.600006H55.4828V1.39999ZM222.042 0.399994L222.93 0.860428L223.687 -0.600006H222.042V0.399994ZM174.842 91.4L173.954 90.9396L173.842 91.1561V91.4H174.842ZM174.842 140V141H175.842V140H174.842ZM146.842 140H145.842V141H146.842V140ZM146.842 91.4H147.842V91.1552L147.729 90.938L146.842 91.4ZM99.4422 0.399994V-0.600006H97.7938L98.5553 0.861961L99.4422 0.399994ZM131.042 0.399994L131.947 -0.025528L131.677 -0.600006H131.042V0.399994ZM161.042 64.2L160.137 64.6255L161.045 66.5565L161.948 64.6232L161.042 64.2ZM190.842 0.399994V-0.600006H190.206L189.936 -0.023201L190.842 0.399994ZM221.154 -0.0604324L173.954 90.9396L175.73 91.8604L222.93 0.860428L221.154 -0.0604324ZM173.842 91.4V140H175.842V91.4H173.842ZM174.842 139H146.842V141H174.842V139ZM147.842 140V91.4H145.842V140H147.842ZM147.729 90.938L100.329 -0.0619659L98.5553 0.861961L145.955 91.862L147.729 90.938ZM99.4422 1.39999H131.042V-0.600006H99.4422V1.39999ZM130.137 0.825523L160.137 64.6255L161.947 63.7745L131.947 -0.025528L130.137 0.825523ZM161.948 64.6232L191.748 0.823196L189.936 -0.023201L160.136 63.7768L161.948 64.6232ZM190.842 1.39999H222.042V-0.600006H190.842V1.39999ZM401.647 0.399994H402.647V-0.600006H401.647V0.399994ZM401.647 140V141H402.647V140H401.647ZM373.647 140H372.647V141H373.647V140ZM373.647 80.6H374.647V79.6H373.647V80.6ZM313.847 80.6V79.6H312.847V80.6H313.847ZM313.847 140V141H314.847V140H313.847ZM285.847 140H284.847V141H285.847V140ZM285.847 0.399994V-0.600006H284.847V0.399994H285.847ZM313.847 0.399994H314.847V-0.600006H313.847V0.399994ZM313.847 57.8H312.847V58.8H313.847V57.8ZM373.647 57.8V58.8H374.647V57.8H373.647ZM373.647 0.399994V-0.600006H372.647V0.399994H373.647ZM400.647 0.399994V140H402.647V0.399994H400.647ZM401.647 139H373.647V141H401.647V139ZM374.647 140V80.6H372.647V140H374.647ZM373.647 79.6H313.847V81.6H373.647V79.6ZM312.847 80.6V140H314.847V80.6H312.847ZM313.847 139H285.847V141H313.847V139ZM286.847 140V0.399994H284.847V140H286.847ZM285.847 1.39999H313.847V-0.600006H285.847V1.39999ZM312.847 0.399994V57.8H314.847V0.399994H312.847ZM313.847 58.8H373.647V56.8H313.847V58.8ZM374.647 57.8V0.399994H372.647V57.8H374.647ZM373.647 1.39999H401.647V-0.600006H373.647V1.39999ZM457.206 0.399994H458.206V-0.600006H457.206V0.399994ZM457.206 140V141H458.206V140H457.206ZM429.206 140H428.206V141H429.206V140ZM429.206 0.399994V-0.600006H428.206V0.399994H429.206ZM456.206 0.399994V140H458.206V0.399994H456.206ZM457.206 139H429.206V141H457.206V139ZM430.206 140V0.399994H428.206V140H430.206ZM429.206 1.39999H457.206V-0.600006H429.206V1.39999ZM556.87 140L556 140.493L556.287 141H556.87V140ZM526.07 85.6L526.94 85.1073L526.653 84.6H526.07V85.6ZM512.87 85.6V84.6H511.87V85.6H512.87ZM512.87 140V141H513.87V140H512.87ZM484.87 140H483.87V141H484.87V140ZM484.87 0.399994V-0.600006H483.87V0.399994H484.87ZM564.87 6.2L564.417 7.09136L564.429 7.09755L564.87 6.2ZM581.87 21.6L581.002 22.0961L581.008 22.1067L581.014 22.1171L581.87 21.6ZM579.67 68.2L580.479 68.7882L580.484 68.7812L579.67 68.2ZM555.87 83.4L555.613 82.4336L554.339 82.7724L555.009 83.9082L555.87 83.4ZM589.27 140V141H591.022L590.132 139.492L589.27 140ZM512.87 64.6H511.87V65.6H512.87V64.6ZM553.27 59.2L553.964 59.9198L553.971 59.9135L553.977 59.9071L553.27 59.2ZM553.27 29L552.576 29.7198L552.583 29.7264L552.59 29.7328L553.27 29ZM512.87 23.6V22.6H511.87V23.6H512.87ZM557.741 139.507L526.94 85.1073L525.2 86.0927L556 140.493L557.741 139.507ZM526.07 84.6H512.87V86.6H526.07V84.6ZM511.87 85.6V140H513.87V85.6H511.87ZM512.87 139H484.87V141H512.87V139ZM485.87 140V0.399994H483.87V140H485.87ZM484.87 1.39999H537.27V-0.600006H484.87V1.39999ZM537.27 1.39999C547.954 1.39999 556.99 3.31257 564.417 7.09127L565.324 5.30872C557.551 1.35409 548.187 -0.600006 537.27 -0.600006V1.39999ZM564.429 7.09755C571.873 10.7542 577.38 15.7575 581.002 22.0961L582.739 21.1039C578.894 14.3758 573.067 9.11243 565.311 5.30244L564.429 7.09755ZM581.014 22.1171C584.78 28.3501 586.67 35.369 586.67 43.2H588.67C588.67 35.031 586.694 27.6499 582.726 21.0829L581.014 22.1171ZM586.67 43.2C586.67 52.1922 584.068 60.3222 578.857 67.6188L580.484 68.7812C585.939 61.1445 588.67 52.6078 588.67 43.2H586.67ZM578.862 67.6118C573.689 74.7239 565.971 79.6802 555.613 82.4336L556.127 84.3664C566.836 81.5198 574.985 76.3427 580.479 68.7882L578.862 67.6118ZM555.009 83.9082L588.409 140.508L590.132 139.492L556.732 82.8918L555.009 83.9082ZM589.27 139H556.87V141H589.27V139ZM512.87 65.6H536.27V63.6H512.87V65.6ZM536.27 65.6C544.01 65.6 549.974 63.7682 553.964 59.9198L552.576 58.4801C549.1 61.8318 543.731 63.6 536.27 63.6V65.6ZM553.977 59.9071C557.941 55.9438 559.87 50.5318 559.87 43.8H557.87C557.87 50.1349 556.067 54.9895 552.563 58.4929L553.977 59.9071ZM559.87 43.8C559.87 37.198 557.938 31.9693 553.951 28.2672L552.59 29.7328C556.07 32.9641 557.87 37.602 557.87 43.8H559.87ZM553.964 28.2802C549.974 24.4317 544.01 22.6 536.27 22.6V24.6C543.731 24.6 549.1 26.3682 552.576 29.7198L553.964 28.2802ZM536.27 22.6H512.87V24.6H536.27V22.6ZM511.87 23.6V64.6H513.87V23.6H511.87ZM640.995 23V22H639.995V23H640.995ZM640.995 58H639.995V59H640.995V58ZM687.995 58H688.995V57H687.995V58ZM687.995 80.2V81.2H688.995V80.2H687.995ZM640.995 80.2V79.2H639.995V80.2H640.995ZM640.995 117.2H639.995V118.2H640.995V117.2ZM693.995 117.2H694.995V116.2H693.995V117.2ZM693.995 140V141H694.995V140H693.995ZM612.995 140H611.995V141H612.995V140ZM612.995 0.199989V-0.800011H611.995V0.199989H612.995ZM693.995 0.199989H694.995V-0.800011H693.995V0.199989ZM693.995 23V24H694.995V23H693.995ZM639.995 23V58H641.995V23H639.995ZM640.995 59H687.995V57H640.995V59ZM686.995 58V80.2H688.995V58H686.995ZM687.995 79.2H640.995V81.2H687.995V79.2ZM639.995 80.2V117.2H641.995V80.2H639.995ZM640.995 118.2H693.995V116.2H640.995V118.2ZM692.995 117.2V140H694.995V117.2H692.995ZM693.995 139H612.995V141H693.995V139ZM613.995 140V0.199989H611.995V140H613.995ZM612.995 1.19999H693.995V-0.800011H612.995V1.19999ZM692.995 0.199989V23H694.995V0.199989H692.995ZM693.995 22H640.995V24H693.995V22ZM919.297 0.399994H920.297V-0.600006H919.297V0.399994ZM919.297 140V141H920.297V140H919.297ZM891.297 140H890.297V141H891.297V140ZM891.297 49.2H892.297L890.372 48.8191L891.297 49.2ZM853.897 140V141H854.567L854.822 140.381L853.897 140ZM832.697 140L831.773 140.383L832.029 141H832.697V140ZM795.097 49.2L796.021 48.8174L794.097 49.2H795.097ZM795.097 140V141H796.097V140H795.097ZM767.097 140H766.097V141H767.097V140ZM767.097 0.399994V-0.600006H766.097V0.399994H767.097ZM798.897 0.399994L799.816 0.0067215L799.557 -0.600006H798.897V0.399994ZM843.297 104.2L842.377 104.593L843.297 106.743L844.216 104.593L843.297 104.2ZM887.697 0.399994V-0.600006H887.037L886.777 0.0067215L887.697 0.399994ZM918.297 0.399994V140H920.297V0.399994H918.297ZM919.297 139H891.297V141H919.297V139ZM892.297 140V49.2H890.297V140H892.297ZM890.372 48.8191L852.972 139.619L854.822 140.381L892.222 49.5808L890.372 48.8191ZM853.897 139H832.697V141H853.897V139ZM833.621 139.617L796.021 48.8174L794.173 49.5826L831.773 140.383L833.621 139.617ZM794.097 49.2V140H796.097V49.2H794.097ZM795.097 139H767.097V141H795.097V139ZM768.097 140V0.399994H766.097V140H768.097ZM767.097 1.39999H798.897V-0.600006H767.097V1.39999ZM797.977 0.793274L842.377 104.593L844.216 103.807L799.816 0.0067215L797.977 0.793274ZM844.216 104.593L888.616 0.793274L886.777 0.0067215L842.377 103.807L844.216 104.593ZM887.697 1.39999H919.297V-0.600006H887.697V1.39999ZM974.98 23V22H973.98V23H974.98ZM974.98 58H973.98V59H974.98V58ZM1021.98 58H1022.98V57H1021.98V58ZM1021.98 80.2V81.2H1022.98V80.2H1021.98ZM974.98 80.2V79.2H973.98V80.2H974.98ZM974.98 117.2H973.98V118.2H974.98V117.2ZM1027.98 117.2H1028.98V116.2H1027.98V117.2ZM1027.98 140V141H1028.98V140H1027.98ZM946.98 140H945.98V141H946.98V140ZM946.98 0.199989V-0.800011H945.98V0.199989H946.98ZM1027.98 0.199989H1028.98V-0.800011H1027.98V0.199989ZM1027.98 23V24H1028.98V23H1027.98ZM973.98 23V58H975.98V23H973.98ZM974.98 59H1021.98V57H974.98V59ZM1020.98 58V80.2H1022.98V58H1020.98ZM1021.98 79.2H974.98V81.2H1021.98V79.2ZM973.98 80.2V117.2H975.98V80.2H973.98ZM974.98 118.2H1027.98V116.2H974.98V118.2ZM1026.98 117.2V140H1028.98V117.2H1026.98ZM1027.98 139H946.98V141H1027.98V139ZM947.98 140V0.199989H945.98V140H947.98ZM946.98 1.19999H1027.98V-0.800011H946.98V1.19999ZM1026.98 0.199989V23H1028.98V0.199989H1026.98ZM1027.98 22H974.98V24H1027.98V22Z" fill="#999999" fill-opacity="0.2" mask="url(#path-1-outside-1_165_854)"/>
</svg>
