<?xml version="1.0" standalone="no"?>
<!DOCTYPE svg PUBLIC "-//W3C//DTD SVG 20010904//EN"
 "http://www.w3.org/TR/2001/REC-SVG-20010904/DTD/svg10.dtd">
<svg version="1.0" xmlns="http://www.w3.org/2000/svg"
 width="500.000000pt" height="500.000000pt" viewBox="0 0 500.000000 500.000000"
 preserveAspectRatio="xMidYMid meet">

<g transform="translate(0.000000,500.000000) scale(0.100000,-0.100000)"
fill="currentcolor" stroke="none">
<path d="M1165 3941 c-49 -23 -89 -64 -109 -113 -22 -53 -23 -313 -1 -366 20
-47 50 -78 100 -105 l40 -22 1306 0 1306 0 49 30 c31 20 58 47 74 75 23 41 25
58 28 186 2 84 -1 157 -8 182 -14 53 -63 110 -115 133 -38 18 -104 19 -1335
19 -1239 0 -1297 -1 -1335 -19z"/>
<path d="M1176 2905 c-49 -17 -93 -59 -117 -110 -27 -58 -27 -321 0 -380 23
-51 79 -101 128 -114 59 -17 2572 -15 2627 1 53 16 118 81 134 134 16 54 16
284 0 338 -16 53 -84 121 -134 135 -27 8 -440 11 -1319 11 -1061 -1 -1287 -3
-1319 -15z"/>
<path d="M1187 1867 c-53 -17 -106 -63 -128 -111 -15 -34 -19 -66 -19 -191 0
-166 10 -205 66 -257 66 -62 -19 -58 1386 -58 901 0 1295 3 1323 11 51 14 116
81 133 136 7 23 12 98 12 175 0 127 -2 137 -27 189 -30 57 -71 92 -132 109
-55 15 -2564 12 -2614 -3z"/>
</g>
</svg>
