<svg xmlns="http://www.w3.org/2000/svg" version="1.1" xmlns:xlink="http://www.w3.org/1999/xlink" xmlns:svgjs="http://svgjs.dev/svgjs" width="1500" height="935" viewBox="0 0 1500 935"><g transform="matrix(1,0,0,1,-0.9090909090909918,0.3785425101214628)"><svg viewBox="0 0 396 247" data-background-color="#dedede" preserveAspectRatio="xMidYMid meet" height="935" width="1500" xmlns="http://www.w3.org/2000/svg" xmlns:xlink="http://www.w3.org/1999/xlink"><g id="tight-bounds" transform="matrix(1,0,0,1,0.2400000000000091,-0.09999999999999432)"><svg viewBox="0 0 395.52 247.2" height="247.2" width="395.52"><rect width="395.52" height="247.2" fill="url(#68ca3b8d-29da-403c-8d68-744af04c8da2)" mask="url(#5494a176-3d4a-4c23-ac88-dbef61a343f1)" data-fill-palette-color="tertiary"></rect><g><svg></svg></g><g><svg viewBox="0 0 395.52 247.2" height="247.2" width="395.52"><g transform="matrix(1,0,0,1,75.54432,100.43133565582772)"><svg viewBox="0 0 244.43135999999998 46.33732868834455" height="46.33732868834455" width="244.43135999999998"><g><svg viewBox="0 0 244.43135999999998 46.33732868834455" height="46.33732868834455" width="244.43135999999998"><g><svg viewBox="0 0 314.160956693824 59.55610405868748" height="46.33732868834455" width="244.43135999999998"><g transform="matrix(1,0,0,1,0,8.230981096388792)"><svg viewBox="0 0 244.43135999999998 43.0941418659099" height="43.0941418659099" width="244.43135999999998"><g id="textblocktransform"><svg viewBox="0 0 244.43135999999998 43.0941418659099" height="43.0941418659099" width="244.43135999999998" id="textblock"><g><svg viewBox="0 0 244.43135999999998 43.0941418659099" height="43.0941418659099" width="244.43135999999998"><g transform="matrix(1,0,0,1,0,0)"><svg width="244.43135999999998" viewBox="-3.95 -38.7 281.87 49.70000000000001" height="43.0941418659099" data-palette-color="url(#8c767462-8835-4f03-8ecf-8bec471aefbb)"></svg></g></svg></g></svg></g></svg></g><g transform="matrix(1,0,0,1,254.60485263513652,0)"><svg viewBox="0 0 59.55610405868748 59.55610405868748" height="59.55610405868748" width="59.55610405868748"><g><svg xmlns:x="http://ns.adobe.com/Extensibility/1.0/" xmlns:i="http://ns.adobe.com/AdobeIllustrator/10.0/" xmlns:graph="http://ns.adobe.com/Graphs/1.0/" xmlns="http://www.w3.org/2000/svg" xmlns:xlink="http://www.w3.org/1999/xlink" version="1.1" x="0" y="0" viewBox="5 5 54 54" enable-background="new 0 0 64 64" xml:space="preserve" height="59.55610405868748" width="59.55610405868748" class="icon-icon-0" data-fill-palette-color="accent" id="icon-0"></svg><g></g></g></svg></g></svg></g></svg></g></svg></g><path d="M205.828 94.431L205.828 30.934 391.159 30.934 391.159 216.266 205.828 216.266 205.828 152.769 208.852 152.769 208.852 213.242 388.136 213.242 388.136 33.958 208.852 33.958 208.852 94.431Z" fill="url(#68ca3b8d-29da-403c-8d68-744af04c8da2)" stroke="transparent" data-fill-palette-color="tertiary"></path></svg></g><defs></defs><mask id="1d6e3438-94c1-4e7c-8734-4cb817a0f165"><g id="SvgjsG1946"><svg viewBox="0 0 395.52 247.2" height="247.2" width="395.52"><g><svg></svg></g><g><svg viewBox="0 0 395.52 247.2" height="247.2" width="395.52"><g transform="matrix(1,0,0,1,75.54432,100.43133565582772)"><svg viewBox="0 0 244.43135999999998 46.33732868834455" height="46.33732868834455" width="244.43135999999998"><g><svg viewBox="0 0 244.43135999999998 46.33732868834455" height="46.33732868834455" width="244.43135999999998"><g><svg viewBox="0 0 314.160956693824 59.55610405868748" height="46.33732868834455" width="244.43135999999998"><g transform="matrix(1,0,0,1,0,8.230981096388792)"><svg viewBox="0 0 244.43135999999998 43.0941418659099" height="43.0941418659099" width="244.43135999999998"><g id="SvgjsG1945"><svg viewBox="0 0 244.43135999999998 43.0941418659099" height="43.0941418659099" width="244.43135999999998" id="SvgjsSvg1944"><g><svg viewBox="0 0 244.43135999999998 43.0941418659099" height="43.0941418659099" width="244.43135999999998"><g transform="matrix(1,0,0,1,0,0)"><svg width="244.43135999999998" viewBox="-3.95 -38.7 281.87 49.70000000000001" height="43.0941418659099" data-palette-color="url(#8c767462-8835-4f03-8ecf-8bec471aefbb)"><path d="M0.15 11L0.15 11Q-1.9 11-3.95 10.55L-3.95 10.55-2.4 4.85Q-0.7 5.3 0.78 5.3 2.25 5.3 2.9 4.2 3.55 3.1 3.55 0.25L3.55 0.25 3.5-12.15 2.95-24.2 9.65-25.45 9.05-13 9.6-1.7Q9.6 3.5 6.8 7.25 4 11 0.15 11ZM2.6-32.73Q2.6-34.45 3.9-35.77 5.2-37.1 6.93-37.1 8.65-37.1 9.53-36.18 10.4-35.25 10.4-33.43 10.4-31.6 9.15-30.25 7.9-28.9 6.23-28.9 4.55-28.9 3.58-29.95 2.6-31 2.6-32.73ZM20.25 0Q17.3 0 15.42-1.88 13.55-3.75 13.55-6.93 13.55-10.1 16.45-12.43 19.35-14.75 23.5-14.75L23.5-14.75 26.9-14.75 26.9-15.6Q26.9-18.05 25.9-18.95 24.9-19.85 22.15-19.85L22.15-19.85Q21-19.85 19.42-19.38 17.85-18.9 15.9-17.9L15.9-17.9 14.45-21.85Q16.6-23.35 19.67-24.55 22.75-25.75 24.75-25.75L24.75-25.75Q32.6-25.75 32.6-18.15L32.6-18.15 32.6-8.35Q32.6-5.55 34.35-2.1L34.35-2.1 29.05 0.15Q27.8-2.25 27.2-4.15L27.2-4.15Q24.45 0 20.25 0L20.25 0ZM22.35-5.1L22.35-5.1Q24.35-5.1 26.9-7.15L26.9-7.15 26.9-10.5Q24.25-11.1 22.6-11.1L22.6-11.1Q19.45-11.1 19.45-8.3L19.45-8.3Q19.45-6.85 20.25-5.98 21.05-5.1 22.35-5.1ZM45.35-14.4L47.2-6.25 47.85-6.25 49.5-13.1 52.2-25.45 58.4-24.7 54.65-12.3 51.5-0.6 42.95 0.15 40-12 36.4-24.15 43.2-25.4 45.35-14.4ZM66.69 0Q63.74 0 61.87-1.88 59.99-3.75 59.99-6.93 59.99-10.1 62.89-12.43 65.79-14.75 69.94-14.75L69.94-14.75 73.34-14.75 73.34-15.6Q73.34-18.05 72.34-18.95 71.34-19.85 68.59-19.85L68.59-19.85Q67.44-19.85 65.87-19.38 64.29-18.9 62.34-17.9L62.34-17.9 60.89-21.85Q63.04-23.35 66.12-24.55 69.19-25.75 71.19-25.75L71.19-25.75Q79.04-25.75 79.04-18.15L79.04-18.15 79.04-8.35Q79.04-5.55 80.79-2.1L80.79-2.1 75.49 0.15Q74.24-2.25 73.64-4.15L73.64-4.15Q70.89 0 66.69 0L66.69 0ZM68.79-5.1L68.79-5.1Q70.79-5.1 73.34-7.15L73.34-7.15 73.34-10.5Q70.69-11.1 69.04-11.1L69.04-11.1Q65.89-11.1 65.89-8.3L65.89-8.3Q65.89-6.85 66.69-5.98 67.49-5.1 68.79-5.1ZM98.34-4.9L98.34-4.9Q94.44 0 91.59 0L91.59 0Q88.04 0 85.77-2.9 83.49-5.8 83.49-10.35L83.49-10.35Q83.49-16.6 86.97-20.9 90.44-25.2 95.49-25.2L95.49-25.2 98.29-24.8 98.29-25.75 97.69-37.45 104.54-38.7 103.89-13 103.89-8.6Q103.89-5.6 105.39-1.7L105.39-1.7 99.99 0.55Q98.54-2.45 98.34-4.9ZM89.09-12.95Q89.09-9.75 90.27-7.95 91.44-6.15 93.67-6.15 95.89-6.15 98.29-7.95L98.29-7.95 98.29-18.75Q95.29-19.35 93.84-19.35L93.84-19.35Q91.59-19.35 90.34-17.75 89.09-16.15 89.09-12.95ZM128.59 11L106.94 11 107.34 6.55 128.99 6.55 128.59 11ZM152.04-14.4L153.79-6.25 154.44-6.25 156.04-13.1 158.64-25.45 164.74-24.7 161.09-12.3 158.04-0.6 149.84 0.15 147.09-12 146.84-12.8 143.49-0.6 135.53 0.15 132.64-12 129.19-24.15 135.74-25.4 137.78-14.4 139.59-6.25 140.24-6.25 144.53-20.5 143.49-24.15 149.94-25.4 152.04-14.4ZM177.03-5.1L177.03-5.1Q178.48-5.1 180.08-5.85 181.68-6.6 182.58-7.35L182.58-7.35 183.48-8.1 185.78-5.3Q185.28-4.45 184.23-3.35 183.18-2.25 182.11-1.48 181.03-0.7 179.26-0.08 177.48 0.55 175.58 0.55L175.58 0.55Q171.53 0.55 168.98-2.53 166.43-5.6 166.43-10.45L166.43-10.45Q166.43-16.55 169.98-21.15 173.53-25.75 178.28-25.75L178.28-25.75Q181.93-25.75 183.96-23.7 185.98-21.65 185.98-17.95L185.98-17.95Q185.98-15.75 185.23-12.95L185.23-12.95 184.23-11.9 171.73-10.75Q172.58-5.1 177.03-5.1ZM177.03-20.6L177.03-20.6Q174.83-20.6 173.33-18.82 171.83-17.05 171.58-14.3L171.58-14.3 180.08-15.35Q180.23-16.5 180.23-17.25L180.23-17.25Q180.23-20.6 177.03-20.6ZM203.58-25.25L203.58-25.25Q206.93-25.25 209.03-22.35 211.13-19.45 211.13-14.9L211.13-14.9Q211.13-8.35 207.71-4.17 204.28 0 198.83 0L198.83 0Q196.33 0 190.43-0.8L190.43-0.8 190.93-12.15 190.33-37.45 197.18-38.7 196.53-25.8 196.53-20.4Q197.08-21.2 197.88-22.1 198.68-23 200.38-24.13 202.08-25.25 203.58-25.25ZM201.63-18.75L201.63-18.75Q199.33-18.75 196.53-17.35L196.53-17.35 196.53-13 196.83-5.65Q198.93-5.4 200.78-5.4L200.78-5.4Q205.58-5.4 205.58-12.08 205.58-18.75 201.63-18.75ZM228.63-25.25L228.63-25.25Q231.83-25.25 234-22.45 236.18-19.65 236.18-14.9L236.18-14.9Q236.18-8.25 232.75-4.13 229.33 0 224.23 0L224.23 0Q223.18 0 221.88-0.15L221.88-0.15 222.13 9.4 215.28 10.65 215.93-12.15 215.98-12.15Q215.78-18.85 214.88-24.15L214.88-24.15 220.93-25.45Q221.23-22.8 221.43-20.2L221.43-20.2Q221.53-20.45 222.45-21.58 223.38-22.7 225.18-23.98 226.98-25.25 228.63-25.25ZM226.68-18.75L226.68-18.75Q224.03-18.75 221.53-17.3L221.53-17.3 221.53-13 221.73-5.85Q224.43-5.4 225.83-5.4L225.83-5.4Q230.63-5.4 230.63-12.08 230.63-18.75 226.68-18.75ZM239.78-24.15L239.78-24.15 245.83-25.45Q246.28-21.6 246.43-18.15L246.43-18.15Q250.98-25.2 254.98-25.2L254.98-25.2 254.43-17.4Q251.53-17.4 249.85-16.88 248.18-16.35 246.43-14.8L246.43-14.8 246.43-13 246.98-1.25 240.28 0 240.88-12.15Q240.68-18.85 239.78-24.15ZM256.62-10.45Q256.62-16.85 260.07-21.3 263.52-25.75 268.15-25.75 272.77-25.75 275.35-22.75 277.92-19.75 277.92-14.8L277.92-14.8Q277.92-8.2 274.6-3.83 271.27 0.55 266.22 0.55L266.22 0.55Q262.07 0.55 259.35-2.58 256.62-5.7 256.62-10.45L256.62-10.45ZM272.32-12.2L272.32-12.2Q272.32-19.45 267.37-19.45L267.37-19.45Q262.22-19.45 262.22-12.65L262.22-12.65Q262.22-9.1 263.67-7.1 265.12-5.1 267.5-5.1 269.87-5.1 271.1-6.93 272.32-8.75 272.32-12.2Z" opacity="1" transform="matrix(1,0,0,1,0,0)" fill="white" class="wordmark-text-0" id="SvgjsPath1943"></path></svg></g></svg></g></svg></g></svg></g><g transform="matrix(1,0,0,1,254.60485263513652,0)"><svg viewBox="0 0 59.55610405868748 59.55610405868748" height="59.55610405868748" width="59.55610405868748"><g><svg xmlns:x="http://ns.adobe.com/Extensibility/1.0/" xmlns:i="http://ns.adobe.com/AdobeIllustrator/10.0/" xmlns:graph="http://ns.adobe.com/Graphs/1.0/" xmlns="http://www.w3.org/2000/svg" xmlns:xlink="http://www.w3.org/1999/xlink" version="1.1" x="0" y="0" viewBox="5 5 54 54" enable-background="new 0 0 64 64" xml:space="preserve" height="59.55610405868748" width="59.55610405868748" class="icon-icon-0" data-fill-palette-color="accent" id="SvgjsSvg1942"><g fill="black"><path d="M32 5C17.112 5 5 17.112 5 32s12.112 27 27 27 27-12.112 27-27S46.888 5 32 5zM51.77 47.275c-2.293-1.221-5.075-2.225-8.159-2.948 0.822-3.401 1.31-7.233 1.378-11.327h11.986C56.763 38.362 54.854 43.294 51.77 47.275zM7.025 33h4.144c0.428 1.357 1.684 2.351 3.181 2.351 1.537 0 2.822-1.046 3.215-2.459C17.698 32.956 17.842 33 18 33h1.012c0.068 4.034 0.542 7.816 1.343 11.181-3.115 0.679-5.946 1.638-8.326 2.838C9.062 43.083 7.233 38.247 7.025 33zM12.076 16.921c2.31 1.303 5.112 2.353 8.226 3.115-0.77 3.31-1.224 7.016-1.29 10.964H18c-0.158 0-0.302 0.044-0.435 0.109-0.393-1.414-1.678-2.459-3.215-2.459-1.497 0-2.753 0.993-3.181 2.351H7.025C7.234 25.726 9.082 20.868 12.076 16.921zM32 25c0.551 0 1 0.449 1 1s-0.449 1-1 1-1-0.449-1-1S31.449 25 32 25zM33 28.816c1.161-0.415 2-1.514 2-2.816s-0.839-2.401-2-2.816v-1.732c3.021-0.016 5.976-0.278 8.766-0.749 0.72 3.132 1.155 6.626 1.223 10.297H33V28.816zM33 19.452V7.113c3.437 0.743 6.471 5.258 8.271 11.65C38.643 19.196 35.854 19.436 33 19.452zM31 7.113v12.303c-2.863-0.087-5.625-0.39-8.203-0.891C24.605 12.259 27.607 7.846 31 7.113zM31 21.432v1.752c-1.162 0.415-2 1.514-2 2.816s0.838 2.401 2 2.815V31h-9.988c0.069-3.76 0.523-7.335 1.275-10.526C25.028 21.015 27.967 21.343 31 21.432zM15.701 32c0 0.745-0.606 1.351-1.351 1.351S13 32.745 13 32s0.606-1.351 1.351-1.351S15.701 31.255 15.701 32zM21.012 33H31v10.018c-2.985 0.034-5.9 0.304-8.65 0.781C21.56 40.541 21.083 36.866 21.012 33zM31 45.017v11.87c-3.347-0.723-6.313-5.023-8.129-11.152C25.453 45.297 28.191 45.05 31 45.017zM33 56.887v-11.86c0.064 0.002 0.13 0.002 0.193 0.004C33.616 46.177 34.709 47 36 47c1.125 0 2.095-0.629 2.608-1.548 0.846 0.111 1.676 0.241 2.489 0.392C39.279 51.916 36.327 56.168 33 56.887zM36 45c-0.552 0-1-0.448-1-1s0.448-1 1-1 1 0.448 1 1S36.552 45 36 45zM38.947 43.481C38.7 42.074 37.477 41 36 41c-1.313 0-2.42 0.854-2.825 2.03-0.058-0.001-0.116-0.002-0.175-0.003V33h9.988c-0.071 3.91-0.56 7.623-1.365 10.908C40.748 43.742 39.855 43.602 38.947 43.481zM44.988 31c-0.064-3.829-0.493-7.432-1.222-10.666 3.201-0.68 6.104-1.659 8.542-2.887 2.766 3.849 4.467 8.51 4.666 13.552H44.988zM51.047 15.833c-2.235 1.081-4.864 1.953-7.767 2.563-1.282-4.651-3.211-8.394-5.552-10.727C43.007 8.913 47.645 11.83 51.047 15.833zM26.272 7.67c-2.29 2.282-4.186 5.909-5.468 10.419-2.8-0.683-5.322-1.606-7.424-2.749C16.739 11.59 21.211 8.861 26.272 7.67zM13.338 48.611c2.173-1.047 4.719-1.893 7.522-2.498 1.281 4.417 3.156 7.969 5.412 10.217C21.189 55.134 16.702 52.386 13.338 48.611zM37.729 56.33c2.23-2.223 4.088-5.723 5.367-10.071 2.77 0.646 5.274 1.522 7.361 2.585C47.117 52.5 42.707 55.158 37.729 56.33z" fill="black"></path></g></svg><g></g></g></svg></g></svg></g></svg></g></svg></g><path d="M205.828 94.431L205.828 30.934 391.159 30.934 391.159 216.266 205.828 216.266 205.828 152.769 208.852 152.769 208.852 213.242 388.136 213.242 388.136 33.958 208.852 33.958 208.852 94.431Z" fill="black" stroke="transparent"></path></svg></g><defs><mask></mask></defs></svg><rect width="395.52" height="247.2" fill="black" stroke="none" visibility="hidden"></rect></g></mask><linearGradient x1="0" x2="1" y1="0.578" y2="0.595" id="8c767462-8835-4f03-8ecf-8bec471aefbb"><stop stop-color="#6ee2f5" offset="0"></stop><stop stop-color="#6454f0" offset="1"></stop></linearGradient><rect width="395.52" height="247.2" fill="url(#8c767462-8835-4f03-8ecf-8bec471aefbb)" mask="url(#1d6e3438-94c1-4e7c-8734-4cb817a0f165)" data-fill-palette-color="primary"></rect><mask id="7a8cfeed-8ed8-48cd-be55-1c62a786bbf9"><g id="SvgjsG1955"><svg viewBox="0 0 395.52 247.2" height="247.2" width="395.52"><g><svg></svg></g><g><svg viewBox="0 0 395.52 247.2" height="247.2" width="395.52"><g transform="matrix(1,0,0,1,75.54432,100.43133565582772)"><svg viewBox="0 0 244.43135999999998 46.33732868834455" height="46.33732868834455" width="244.43135999999998"><g><svg viewBox="0 0 244.43135999999998 46.33732868834455" height="46.33732868834455" width="244.43135999999998"><g><svg viewBox="0 0 314.160956693824 59.55610405868748" height="46.33732868834455" width="244.43135999999998"><g transform="matrix(1,0,0,1,0,8.230981096388792)"><svg viewBox="0 0 244.43135999999998 43.0941418659099" height="43.0941418659099" width="244.43135999999998"><g id="SvgjsG1954"><svg viewBox="0 0 244.43135999999998 43.0941418659099" height="43.0941418659099" width="244.43135999999998" id="SvgjsSvg1953"><g><svg viewBox="0 0 244.43135999999998 43.0941418659099" height="43.0941418659099" width="244.43135999999998"><g transform="matrix(1,0,0,1,0,0)"><svg width="244.43135999999998" viewBox="-3.95 -38.7 281.87 49.70000000000001" height="43.0941418659099" data-palette-color="url(#8c767462-8835-4f03-8ecf-8bec471aefbb)"></svg></g></svg></g></svg></g></svg></g><g transform="matrix(1,0,0,1,254.60485263513652,0)"><svg viewBox="0 0 59.55610405868748 59.55610405868748" height="59.55610405868748" width="59.55610405868748"><g><svg xmlns:x="http://ns.adobe.com/Extensibility/1.0/" xmlns:i="http://ns.adobe.com/AdobeIllustrator/10.0/" xmlns:graph="http://ns.adobe.com/Graphs/1.0/" xmlns="http://www.w3.org/2000/svg" xmlns:xlink="http://www.w3.org/1999/xlink" version="1.1" x="0" y="0" viewBox="5 5 54 54" enable-background="new 0 0 64 64" xml:space="preserve" height="59.55610405868748" width="59.55610405868748" class="icon-icon-0" data-fill-palette-color="accent" id="SvgjsSvg1952"><g fill="white"><path d="M32 5C17.112 5 5 17.112 5 32s12.112 27 27 27 27-12.112 27-27S46.888 5 32 5zM51.77 47.275c-2.293-1.221-5.075-2.225-8.159-2.948 0.822-3.401 1.31-7.233 1.378-11.327h11.986C56.763 38.362 54.854 43.294 51.77 47.275zM7.025 33h4.144c0.428 1.357 1.684 2.351 3.181 2.351 1.537 0 2.822-1.046 3.215-2.459C17.698 32.956 17.842 33 18 33h1.012c0.068 4.034 0.542 7.816 1.343 11.181-3.115 0.679-5.946 1.638-8.326 2.838C9.062 43.083 7.233 38.247 7.025 33zM12.076 16.921c2.31 1.303 5.112 2.353 8.226 3.115-0.77 3.31-1.224 7.016-1.29 10.964H18c-0.158 0-0.302 0.044-0.435 0.109-0.393-1.414-1.678-2.459-3.215-2.459-1.497 0-2.753 0.993-3.181 2.351H7.025C7.234 25.726 9.082 20.868 12.076 16.921zM32 25c0.551 0 1 0.449 1 1s-0.449 1-1 1-1-0.449-1-1S31.449 25 32 25zM33 28.816c1.161-0.415 2-1.514 2-2.816s-0.839-2.401-2-2.816v-1.732c3.021-0.016 5.976-0.278 8.766-0.749 0.72 3.132 1.155 6.626 1.223 10.297H33V28.816zM33 19.452V7.113c3.437 0.743 6.471 5.258 8.271 11.65C38.643 19.196 35.854 19.436 33 19.452zM31 7.113v12.303c-2.863-0.087-5.625-0.39-8.203-0.891C24.605 12.259 27.607 7.846 31 7.113zM31 21.432v1.752c-1.162 0.415-2 1.514-2 2.816s0.838 2.401 2 2.815V31h-9.988c0.069-3.76 0.523-7.335 1.275-10.526C25.028 21.015 27.967 21.343 31 21.432zM15.701 32c0 0.745-0.606 1.351-1.351 1.351S13 32.745 13 32s0.606-1.351 1.351-1.351S15.701 31.255 15.701 32zM21.012 33H31v10.018c-2.985 0.034-5.9 0.304-8.65 0.781C21.56 40.541 21.083 36.866 21.012 33zM31 45.017v11.87c-3.347-0.723-6.313-5.023-8.129-11.152C25.453 45.297 28.191 45.05 31 45.017zM33 56.887v-11.86c0.064 0.002 0.13 0.002 0.193 0.004C33.616 46.177 34.709 47 36 47c1.125 0 2.095-0.629 2.608-1.548 0.846 0.111 1.676 0.241 2.489 0.392C39.279 51.916 36.327 56.168 33 56.887zM36 45c-0.552 0-1-0.448-1-1s0.448-1 1-1 1 0.448 1 1S36.552 45 36 45zM38.947 43.481C38.7 42.074 37.477 41 36 41c-1.313 0-2.42 0.854-2.825 2.03-0.058-0.001-0.116-0.002-0.175-0.003V33h9.988c-0.071 3.91-0.56 7.623-1.365 10.908C40.748 43.742 39.855 43.602 38.947 43.481zM44.988 31c-0.064-3.829-0.493-7.432-1.222-10.666 3.201-0.68 6.104-1.659 8.542-2.887 2.766 3.849 4.467 8.51 4.666 13.552H44.988zM51.047 15.833c-2.235 1.081-4.864 1.953-7.767 2.563-1.282-4.651-3.211-8.394-5.552-10.727C43.007 8.913 47.645 11.83 51.047 15.833zM26.272 7.67c-2.29 2.282-4.186 5.909-5.468 10.419-2.8-0.683-5.322-1.606-7.424-2.749C16.739 11.59 21.211 8.861 26.272 7.67zM13.338 48.611c2.173-1.047 4.719-1.893 7.522-2.498 1.281 4.417 3.156 7.969 5.412 10.217C21.189 55.134 16.702 52.386 13.338 48.611zM37.729 56.33c2.23-2.223 4.088-5.723 5.367-10.071 2.77 0.646 5.274 1.522 7.361 2.585C47.117 52.5 42.707 55.158 37.729 56.33z" fill="white"></path></g></svg><g></g></g></svg></g></svg></g></svg></g></svg></g><path d="M205.828 94.431L205.828 30.934 391.159 30.934 391.159 216.266 205.828 216.266 205.828 152.769 208.852 152.769 208.852 213.242 388.136 213.242 388.136 33.958 208.852 33.958 208.852 94.431Z" fill="black" stroke="transparent"></path></svg></g><defs><mask></mask></defs><mask><g id="SvgjsG1951"><svg viewBox="0 0 395.52 247.2" height="247.2" width="395.52"><g><svg></svg></g><g><svg viewBox="0 0 395.52 247.2" height="247.2" width="395.52"><g transform="matrix(1,0,0,1,75.54432,100.43133565582772)"><svg viewBox="0 0 244.43135999999998 46.33732868834455" height="46.33732868834455" width="244.43135999999998"><g><svg viewBox="0 0 244.43135999999998 46.33732868834455" height="46.33732868834455" width="244.43135999999998"><g><svg viewBox="0 0 314.160956693824 59.55610405868748" height="46.33732868834455" width="244.43135999999998"><g transform="matrix(1,0,0,1,0,8.230981096388792)"><svg viewBox="0 0 244.43135999999998 43.0941418659099" height="43.0941418659099" width="244.43135999999998"><g id="SvgjsG1950"><svg viewBox="0 0 244.43135999999998 43.0941418659099" height="43.0941418659099" width="244.43135999999998" id="SvgjsSvg1949"><g><svg viewBox="0 0 244.43135999999998 43.0941418659099" height="43.0941418659099" width="244.43135999999998"><g transform="matrix(1,0,0,1,0,0)"><svg width="244.43135999999998" viewBox="-3.95 -38.7 281.87 49.70000000000001" height="43.0941418659099" data-palette-color="url(#8c767462-8835-4f03-8ecf-8bec471aefbb)"><path d="M0.15 11L0.15 11Q-1.9 11-3.95 10.55L-3.95 10.55-2.4 4.85Q-0.7 5.3 0.78 5.3 2.25 5.3 2.9 4.2 3.55 3.1 3.55 0.25L3.55 0.25 3.5-12.15 2.95-24.2 9.65-25.45 9.05-13 9.6-1.7Q9.6 3.5 6.8 7.25 4 11 0.15 11ZM2.6-32.73Q2.6-34.45 3.9-35.77 5.2-37.1 6.93-37.1 8.65-37.1 9.53-36.18 10.4-35.25 10.4-33.43 10.4-31.6 9.15-30.25 7.9-28.9 6.23-28.9 4.55-28.9 3.58-29.95 2.6-31 2.6-32.73ZM20.25 0Q17.3 0 15.42-1.88 13.55-3.75 13.55-6.93 13.55-10.1 16.45-12.43 19.35-14.75 23.5-14.75L23.5-14.75 26.9-14.75 26.9-15.6Q26.9-18.05 25.9-18.95 24.9-19.85 22.15-19.85L22.15-19.85Q21-19.85 19.42-19.38 17.85-18.9 15.9-17.9L15.9-17.9 14.45-21.85Q16.6-23.35 19.67-24.55 22.75-25.75 24.75-25.75L24.75-25.75Q32.6-25.75 32.6-18.15L32.6-18.15 32.6-8.35Q32.6-5.55 34.35-2.1L34.35-2.1 29.05 0.15Q27.8-2.25 27.2-4.15L27.2-4.15Q24.45 0 20.25 0L20.25 0ZM22.35-5.1L22.35-5.1Q24.35-5.1 26.9-7.15L26.9-7.15 26.9-10.5Q24.25-11.1 22.6-11.1L22.6-11.1Q19.45-11.1 19.45-8.3L19.45-8.3Q19.45-6.85 20.25-5.98 21.05-5.1 22.35-5.1ZM45.35-14.4L47.2-6.25 47.85-6.25 49.5-13.1 52.2-25.45 58.4-24.7 54.65-12.3 51.5-0.6 42.95 0.15 40-12 36.4-24.15 43.2-25.4 45.35-14.4ZM66.69 0Q63.74 0 61.87-1.88 59.99-3.75 59.99-6.93 59.99-10.1 62.89-12.43 65.79-14.75 69.94-14.75L69.94-14.75 73.34-14.75 73.34-15.6Q73.34-18.05 72.34-18.95 71.34-19.85 68.59-19.85L68.59-19.85Q67.44-19.85 65.87-19.38 64.29-18.9 62.34-17.9L62.34-17.9 60.89-21.85Q63.04-23.35 66.12-24.55 69.19-25.75 71.19-25.75L71.19-25.75Q79.04-25.75 79.04-18.15L79.04-18.15 79.04-8.35Q79.04-5.55 80.79-2.1L80.79-2.1 75.49 0.15Q74.24-2.25 73.64-4.15L73.64-4.15Q70.89 0 66.69 0L66.69 0ZM68.79-5.1L68.79-5.1Q70.79-5.1 73.34-7.15L73.34-7.15 73.34-10.5Q70.69-11.1 69.04-11.1L69.04-11.1Q65.89-11.1 65.89-8.3L65.89-8.3Q65.89-6.85 66.69-5.98 67.49-5.1 68.79-5.1ZM98.34-4.9L98.34-4.9Q94.44 0 91.59 0L91.59 0Q88.04 0 85.77-2.9 83.49-5.8 83.49-10.35L83.49-10.35Q83.49-16.6 86.97-20.9 90.44-25.2 95.49-25.2L95.49-25.2 98.29-24.8 98.29-25.75 97.69-37.45 104.54-38.7 103.89-13 103.89-8.6Q103.89-5.6 105.39-1.7L105.39-1.7 99.99 0.55Q98.54-2.45 98.34-4.9ZM89.09-12.95Q89.09-9.75 90.27-7.95 91.44-6.15 93.67-6.15 95.89-6.15 98.29-7.95L98.29-7.95 98.29-18.75Q95.29-19.35 93.84-19.35L93.84-19.35Q91.59-19.35 90.34-17.75 89.09-16.15 89.09-12.95ZM128.59 11L106.94 11 107.34 6.55 128.99 6.55 128.59 11ZM152.04-14.4L153.79-6.25 154.44-6.25 156.04-13.1 158.64-25.45 164.74-24.7 161.09-12.3 158.04-0.6 149.84 0.15 147.09-12 146.84-12.8 143.49-0.6 135.53 0.15 132.64-12 129.19-24.15 135.74-25.4 137.78-14.4 139.59-6.25 140.24-6.25 144.53-20.5 143.49-24.15 149.94-25.4 152.04-14.4ZM177.03-5.1L177.03-5.1Q178.48-5.1 180.08-5.85 181.68-6.6 182.58-7.35L182.58-7.35 183.48-8.1 185.78-5.3Q185.28-4.45 184.23-3.35 183.18-2.25 182.11-1.48 181.03-0.7 179.26-0.08 177.48 0.55 175.58 0.55L175.58 0.55Q171.53 0.55 168.98-2.53 166.43-5.6 166.43-10.45L166.43-10.45Q166.43-16.55 169.98-21.15 173.53-25.75 178.28-25.75L178.28-25.75Q181.93-25.75 183.96-23.7 185.98-21.65 185.98-17.95L185.98-17.95Q185.98-15.75 185.23-12.95L185.23-12.95 184.23-11.9 171.73-10.75Q172.58-5.1 177.03-5.1ZM177.03-20.6L177.03-20.6Q174.83-20.6 173.33-18.82 171.83-17.05 171.58-14.3L171.58-14.3 180.08-15.35Q180.23-16.5 180.23-17.25L180.23-17.25Q180.23-20.6 177.03-20.6ZM203.58-25.25L203.58-25.25Q206.93-25.25 209.03-22.35 211.13-19.45 211.13-14.9L211.13-14.9Q211.13-8.35 207.71-4.17 204.28 0 198.83 0L198.83 0Q196.33 0 190.43-0.8L190.43-0.8 190.93-12.15 190.33-37.45 197.18-38.7 196.53-25.8 196.53-20.4Q197.08-21.2 197.88-22.1 198.68-23 200.38-24.13 202.08-25.25 203.58-25.25ZM201.63-18.75L201.63-18.75Q199.33-18.75 196.53-17.35L196.53-17.35 196.53-13 196.83-5.65Q198.93-5.4 200.78-5.4L200.78-5.4Q205.58-5.4 205.58-12.08 205.58-18.75 201.63-18.75ZM228.63-25.25L228.63-25.25Q231.83-25.25 234-22.45 236.18-19.65 236.18-14.9L236.18-14.9Q236.18-8.25 232.75-4.13 229.33 0 224.23 0L224.23 0Q223.18 0 221.88-0.15L221.88-0.15 222.13 9.4 215.28 10.65 215.93-12.15 215.98-12.15Q215.78-18.85 214.88-24.15L214.88-24.15 220.93-25.45Q221.23-22.8 221.43-20.2L221.43-20.2Q221.53-20.45 222.45-21.58 223.38-22.7 225.18-23.98 226.98-25.25 228.63-25.25ZM226.68-18.75L226.68-18.75Q224.03-18.75 221.53-17.3L221.53-17.3 221.53-13 221.73-5.85Q224.43-5.4 225.83-5.4L225.83-5.4Q230.63-5.4 230.63-12.08 230.63-18.75 226.68-18.75ZM239.78-24.15L239.78-24.15 245.83-25.45Q246.28-21.6 246.43-18.15L246.43-18.15Q250.98-25.2 254.98-25.2L254.98-25.2 254.43-17.4Q251.53-17.4 249.85-16.88 248.18-16.35 246.43-14.8L246.43-14.8 246.43-13 246.98-1.25 240.28 0 240.88-12.15Q240.68-18.85 239.78-24.15ZM256.62-10.45Q256.62-16.85 260.07-21.3 263.52-25.75 268.15-25.75 272.77-25.75 275.35-22.75 277.92-19.75 277.92-14.8L277.92-14.8Q277.92-8.2 274.6-3.83 271.27 0.55 266.22 0.55L266.22 0.55Q262.07 0.55 259.35-2.58 256.62-5.7 256.62-10.45L256.62-10.45ZM272.32-12.2L272.32-12.2Q272.32-19.45 267.37-19.45L267.37-19.45Q262.22-19.45 262.22-12.65L262.22-12.65Q262.22-9.1 263.67-7.1 265.12-5.1 267.5-5.1 269.87-5.1 271.1-6.93 272.32-8.75 272.32-12.2Z" opacity="1" transform="matrix(1,0,0,1,0,0)" fill="black" class="wordmark-text-0" id="SvgjsPath1948"></path></svg></g></svg></g></svg></g></svg></g><g transform="matrix(1,0,0,1,254.60485263513652,0)"><svg viewBox="0 0 59.55610405868748 59.55610405868748" height="59.55610405868748" width="59.55610405868748"><g><svg xmlns:x="http://ns.adobe.com/Extensibility/1.0/" xmlns:i="http://ns.adobe.com/AdobeIllustrator/10.0/" xmlns:graph="http://ns.adobe.com/Graphs/1.0/" xmlns="http://www.w3.org/2000/svg" xmlns:xlink="http://www.w3.org/1999/xlink" version="1.1" x="0" y="0" viewBox="5 5 54 54" enable-background="new 0 0 64 64" xml:space="preserve" height="59.55610405868748" width="59.55610405868748" class="icon-icon-0" data-fill-palette-color="accent" id="SvgjsSvg1947"><g fill="black"><path d="M32 5C17.112 5 5 17.112 5 32s12.112 27 27 27 27-12.112 27-27S46.888 5 32 5zM51.77 47.275c-2.293-1.221-5.075-2.225-8.159-2.948 0.822-3.401 1.31-7.233 1.378-11.327h11.986C56.763 38.362 54.854 43.294 51.77 47.275zM7.025 33h4.144c0.428 1.357 1.684 2.351 3.181 2.351 1.537 0 2.822-1.046 3.215-2.459C17.698 32.956 17.842 33 18 33h1.012c0.068 4.034 0.542 7.816 1.343 11.181-3.115 0.679-5.946 1.638-8.326 2.838C9.062 43.083 7.233 38.247 7.025 33zM12.076 16.921c2.31 1.303 5.112 2.353 8.226 3.115-0.77 3.31-1.224 7.016-1.29 10.964H18c-0.158 0-0.302 0.044-0.435 0.109-0.393-1.414-1.678-2.459-3.215-2.459-1.497 0-2.753 0.993-3.181 2.351H7.025C7.234 25.726 9.082 20.868 12.076 16.921zM32 25c0.551 0 1 0.449 1 1s-0.449 1-1 1-1-0.449-1-1S31.449 25 32 25zM33 28.816c1.161-0.415 2-1.514 2-2.816s-0.839-2.401-2-2.816v-1.732c3.021-0.016 5.976-0.278 8.766-0.749 0.72 3.132 1.155 6.626 1.223 10.297H33V28.816zM33 19.452V7.113c3.437 0.743 6.471 5.258 8.271 11.65C38.643 19.196 35.854 19.436 33 19.452zM31 7.113v12.303c-2.863-0.087-5.625-0.39-8.203-0.891C24.605 12.259 27.607 7.846 31 7.113zM31 21.432v1.752c-1.162 0.415-2 1.514-2 2.816s0.838 2.401 2 2.815V31h-9.988c0.069-3.76 0.523-7.335 1.275-10.526C25.028 21.015 27.967 21.343 31 21.432zM15.701 32c0 0.745-0.606 1.351-1.351 1.351S13 32.745 13 32s0.606-1.351 1.351-1.351S15.701 31.255 15.701 32zM21.012 33H31v10.018c-2.985 0.034-5.9 0.304-8.65 0.781C21.56 40.541 21.083 36.866 21.012 33zM31 45.017v11.87c-3.347-0.723-6.313-5.023-8.129-11.152C25.453 45.297 28.191 45.05 31 45.017zM33 56.887v-11.86c0.064 0.002 0.13 0.002 0.193 0.004C33.616 46.177 34.709 47 36 47c1.125 0 2.095-0.629 2.608-1.548 0.846 0.111 1.676 0.241 2.489 0.392C39.279 51.916 36.327 56.168 33 56.887zM36 45c-0.552 0-1-0.448-1-1s0.448-1 1-1 1 0.448 1 1S36.552 45 36 45zM38.947 43.481C38.7 42.074 37.477 41 36 41c-1.313 0-2.42 0.854-2.825 2.03-0.058-0.001-0.116-0.002-0.175-0.003V33h9.988c-0.071 3.91-0.56 7.623-1.365 10.908C40.748 43.742 39.855 43.602 38.947 43.481zM44.988 31c-0.064-3.829-0.493-7.432-1.222-10.666 3.201-0.68 6.104-1.659 8.542-2.887 2.766 3.849 4.467 8.51 4.666 13.552H44.988zM51.047 15.833c-2.235 1.081-4.864 1.953-7.767 2.563-1.282-4.651-3.211-8.394-5.552-10.727C43.007 8.913 47.645 11.83 51.047 15.833zM26.272 7.67c-2.29 2.282-4.186 5.909-5.468 10.419-2.8-0.683-5.322-1.606-7.424-2.749C16.739 11.59 21.211 8.861 26.272 7.67zM13.338 48.611c2.173-1.047 4.719-1.893 7.522-2.498 1.281 4.417 3.156 7.969 5.412 10.217C21.189 55.134 16.702 52.386 13.338 48.611zM37.729 56.33c2.23-2.223 4.088-5.723 5.367-10.071 2.77 0.646 5.274 1.522 7.361 2.585C47.117 52.5 42.707 55.158 37.729 56.33z" fill="black"></path></g></svg><g></g></g></svg></g></svg></g></svg></g></svg></g><path d="M205.828 94.431L205.828 30.934 391.159 30.934 391.159 216.266 205.828 216.266 205.828 152.769 208.852 152.769 208.852 213.242 388.136 213.242 388.136 33.958 208.852 33.958 208.852 94.431Z" fill="black" stroke="transparent"></path></svg></g><defs><mask></mask></defs></svg><rect width="395.52" height="247.2" fill="black" stroke="none" visibility="hidden"></rect></g></mask></svg><rect width="395.52" height="247.2" fill="black" stroke="none" visibility="hidden"></rect></g></mask><linearGradient x1="0" x2="1" y1="0.578" y2="0.595" id="d6791319-9706-452a-a631-7f5e1e1d2939"><stop stop-color="#6ee2f5" offset="0"></stop><stop stop-color="#6454f0" offset="1"></stop></linearGradient><rect width="395.52" height="247.2" fill="url(#d6791319-9706-452a-a631-7f5e1e1d2939)" mask="url(#7a8cfeed-8ed8-48cd-be55-1c62a786bbf9)" data-fill-palette-color="accent"></rect><mask id="5494a176-3d4a-4c23-ac88-dbef61a343f1"><g id="SvgjsG1973"><svg viewBox="0 0 395.52 247.2" height="247.2" width="395.52"><g><svg></svg></g><g><svg viewBox="0 0 395.52 247.2" height="247.2" width="395.52"><g transform="matrix(1,0,0,1,75.54432,100.43133565582772)"><svg viewBox="0 0 244.43135999999998 46.33732868834455" height="46.33732868834455" width="244.43135999999998"><g><svg viewBox="0 0 244.43135999999998 46.33732868834455" height="46.33732868834455" width="244.43135999999998"><g><svg viewBox="0 0 314.160956693824 59.55610405868748" height="46.33732868834455" width="244.43135999999998"><g transform="matrix(1,0,0,1,0,8.230981096388792)"><svg viewBox="0 0 244.43135999999998 43.0941418659099" height="43.0941418659099" width="244.43135999999998"><g id="SvgjsG1972"><svg viewBox="0 0 244.43135999999998 43.0941418659099" height="43.0941418659099" width="244.43135999999998" id="SvgjsSvg1971"><g><svg viewBox="0 0 244.43135999999998 43.0941418659099" height="43.0941418659099" width="244.43135999999998"><g transform="matrix(1,0,0,1,0,0)"><svg width="244.43135999999998" viewBox="-3.95 -38.7 281.87 49.70000000000001" height="43.0941418659099" data-palette-color="url(#8c767462-8835-4f03-8ecf-8bec471aefbb)"></svg></g></svg></g></svg></g></svg></g><g transform="matrix(1,0,0,1,254.60485263513652,0)"><svg viewBox="0 0 59.55610405868748 59.55610405868748" height="59.55610405868748" width="59.55610405868748"><g><svg xmlns:x="http://ns.adobe.com/Extensibility/1.0/" xmlns:i="http://ns.adobe.com/AdobeIllustrator/10.0/" xmlns:graph="http://ns.adobe.com/Graphs/1.0/" xmlns="http://www.w3.org/2000/svg" xmlns:xlink="http://www.w3.org/1999/xlink" version="1.1" x="0" y="0" viewBox="5 5 54 54" enable-background="new 0 0 64 64" xml:space="preserve" height="59.55610405868748" width="59.55610405868748" class="icon-icon-0" data-fill-palette-color="accent" id="SvgjsSvg1970"></svg><g></g></g></svg></g></svg></g></svg></g></svg></g><path d="M205.828 94.431L205.828 30.934 391.159 30.934 391.159 216.266 205.828 216.266 205.828 152.769 208.852 152.769 208.852 213.242 388.136 213.242 388.136 33.958 208.852 33.958 208.852 94.431Z" fill="white" stroke="transparent"></path></svg></g><defs><mask></mask></defs><mask><g id="SvgjsG1969"><svg viewBox="0 0 395.52 247.2" height="247.2" width="395.52"><g><svg></svg></g><g><svg viewBox="0 0 395.52 247.2" height="247.2" width="395.52"><g transform="matrix(1,0,0,1,75.54432,100.43133565582772)"><svg viewBox="0 0 244.43135999999998 46.33732868834455" height="46.33732868834455" width="244.43135999999998"><g><svg viewBox="0 0 244.43135999999998 46.33732868834455" height="46.33732868834455" width="244.43135999999998"><g><svg viewBox="0 0 314.160956693824 59.55610405868748" height="46.33732868834455" width="244.43135999999998"><g transform="matrix(1,0,0,1,0,8.230981096388792)"><svg viewBox="0 0 244.43135999999998 43.0941418659099" height="43.0941418659099" width="244.43135999999998"><g id="SvgjsG1968"><svg viewBox="0 0 244.43135999999998 43.0941418659099" height="43.0941418659099" width="244.43135999999998" id="SvgjsSvg1967"><g><svg viewBox="0 0 244.43135999999998 43.0941418659099" height="43.0941418659099" width="244.43135999999998"><g transform="matrix(1,0,0,1,0,0)"><svg width="244.43135999999998" viewBox="-3.95 -38.7 281.87 49.70000000000001" height="43.0941418659099" data-palette-color="url(#8c767462-8835-4f03-8ecf-8bec471aefbb)"><path d="M0.15 11L0.15 11Q-1.9 11-3.95 10.55L-3.95 10.55-2.4 4.85Q-0.7 5.3 0.78 5.3 2.25 5.3 2.9 4.2 3.55 3.1 3.55 0.25L3.55 0.25 3.5-12.15 2.95-24.2 9.65-25.45 9.05-13 9.6-1.7Q9.6 3.5 6.8 7.25 4 11 0.15 11ZM2.6-32.73Q2.6-34.45 3.9-35.77 5.2-37.1 6.93-37.1 8.65-37.1 9.53-36.18 10.4-35.25 10.4-33.43 10.4-31.6 9.15-30.25 7.9-28.9 6.23-28.9 4.55-28.9 3.58-29.95 2.6-31 2.6-32.73ZM20.25 0Q17.3 0 15.42-1.88 13.55-3.75 13.55-6.93 13.55-10.1 16.45-12.43 19.35-14.75 23.5-14.75L23.5-14.75 26.9-14.75 26.9-15.6Q26.9-18.05 25.9-18.95 24.9-19.85 22.15-19.85L22.15-19.85Q21-19.85 19.42-19.38 17.85-18.9 15.9-17.9L15.9-17.9 14.45-21.85Q16.6-23.35 19.67-24.55 22.75-25.75 24.75-25.75L24.75-25.75Q32.6-25.75 32.6-18.15L32.6-18.15 32.6-8.35Q32.6-5.55 34.35-2.1L34.35-2.1 29.05 0.15Q27.8-2.25 27.2-4.15L27.2-4.15Q24.45 0 20.25 0L20.25 0ZM22.35-5.1L22.35-5.1Q24.35-5.1 26.9-7.15L26.9-7.15 26.9-10.5Q24.25-11.1 22.6-11.1L22.6-11.1Q19.45-11.1 19.45-8.3L19.45-8.3Q19.45-6.85 20.25-5.98 21.05-5.1 22.35-5.1ZM45.35-14.4L47.2-6.25 47.85-6.25 49.5-13.1 52.2-25.45 58.4-24.7 54.65-12.3 51.5-0.6 42.95 0.15 40-12 36.4-24.15 43.2-25.4 45.35-14.4ZM66.69 0Q63.74 0 61.87-1.88 59.99-3.75 59.99-6.93 59.99-10.1 62.89-12.43 65.79-14.75 69.94-14.75L69.94-14.75 73.34-14.75 73.34-15.6Q73.34-18.05 72.34-18.95 71.34-19.85 68.59-19.85L68.59-19.85Q67.44-19.85 65.87-19.38 64.29-18.9 62.34-17.9L62.34-17.9 60.89-21.85Q63.04-23.35 66.12-24.55 69.19-25.75 71.19-25.75L71.19-25.75Q79.04-25.75 79.04-18.15L79.04-18.15 79.04-8.35Q79.04-5.55 80.79-2.1L80.79-2.1 75.49 0.15Q74.24-2.25 73.64-4.15L73.64-4.15Q70.89 0 66.69 0L66.69 0ZM68.79-5.1L68.79-5.1Q70.79-5.1 73.34-7.15L73.34-7.15 73.34-10.5Q70.69-11.1 69.04-11.1L69.04-11.1Q65.89-11.1 65.89-8.3L65.89-8.3Q65.89-6.85 66.69-5.98 67.49-5.1 68.79-5.1ZM98.34-4.9L98.34-4.9Q94.44 0 91.59 0L91.59 0Q88.04 0 85.77-2.9 83.49-5.8 83.49-10.35L83.49-10.35Q83.49-16.6 86.97-20.9 90.44-25.2 95.49-25.2L95.49-25.2 98.29-24.8 98.29-25.75 97.69-37.45 104.54-38.7 103.89-13 103.89-8.6Q103.89-5.6 105.39-1.7L105.39-1.7 99.99 0.55Q98.54-2.45 98.34-4.9ZM89.09-12.95Q89.09-9.75 90.27-7.95 91.44-6.15 93.67-6.15 95.89-6.15 98.29-7.95L98.29-7.95 98.29-18.75Q95.29-19.35 93.84-19.35L93.84-19.35Q91.59-19.35 90.34-17.75 89.09-16.15 89.09-12.95ZM128.59 11L106.94 11 107.34 6.55 128.99 6.55 128.59 11ZM152.04-14.4L153.79-6.25 154.44-6.25 156.04-13.1 158.64-25.45 164.74-24.7 161.09-12.3 158.04-0.6 149.84 0.15 147.09-12 146.84-12.8 143.49-0.6 135.53 0.15 132.64-12 129.19-24.15 135.74-25.4 137.78-14.4 139.59-6.25 140.24-6.25 144.53-20.5 143.49-24.15 149.94-25.4 152.04-14.4ZM177.03-5.1L177.03-5.1Q178.48-5.1 180.08-5.85 181.68-6.6 182.58-7.35L182.58-7.35 183.48-8.1 185.78-5.3Q185.28-4.45 184.23-3.35 183.18-2.25 182.11-1.48 181.03-0.7 179.26-0.08 177.48 0.55 175.58 0.55L175.58 0.55Q171.53 0.55 168.98-2.53 166.43-5.6 166.43-10.45L166.43-10.45Q166.43-16.55 169.98-21.15 173.53-25.75 178.28-25.75L178.28-25.75Q181.93-25.75 183.96-23.7 185.98-21.65 185.98-17.95L185.98-17.95Q185.98-15.75 185.23-12.95L185.23-12.95 184.23-11.9 171.73-10.75Q172.58-5.1 177.03-5.1ZM177.03-20.6L177.03-20.6Q174.83-20.6 173.33-18.82 171.83-17.05 171.58-14.3L171.58-14.3 180.08-15.35Q180.23-16.5 180.23-17.25L180.23-17.25Q180.23-20.6 177.03-20.6ZM203.58-25.25L203.58-25.25Q206.93-25.25 209.03-22.35 211.13-19.45 211.13-14.9L211.13-14.9Q211.13-8.35 207.71-4.17 204.28 0 198.83 0L198.83 0Q196.33 0 190.43-0.8L190.43-0.8 190.93-12.15 190.33-37.45 197.18-38.7 196.53-25.8 196.53-20.4Q197.08-21.2 197.88-22.1 198.68-23 200.38-24.13 202.08-25.25 203.58-25.25ZM201.63-18.75L201.63-18.75Q199.33-18.75 196.53-17.35L196.53-17.35 196.53-13 196.83-5.65Q198.93-5.4 200.78-5.4L200.78-5.4Q205.58-5.4 205.58-12.08 205.58-18.75 201.63-18.75ZM228.63-25.25L228.63-25.25Q231.83-25.25 234-22.45 236.18-19.65 236.18-14.9L236.18-14.9Q236.18-8.25 232.75-4.13 229.33 0 224.23 0L224.23 0Q223.18 0 221.88-0.15L221.88-0.15 222.13 9.4 215.28 10.65 215.93-12.15 215.98-12.15Q215.78-18.85 214.88-24.15L214.88-24.15 220.93-25.45Q221.23-22.8 221.43-20.2L221.43-20.2Q221.53-20.45 222.45-21.58 223.38-22.7 225.18-23.98 226.98-25.25 228.63-25.25ZM226.68-18.75L226.68-18.75Q224.03-18.75 221.53-17.3L221.53-17.3 221.53-13 221.73-5.85Q224.43-5.4 225.83-5.4L225.83-5.4Q230.63-5.4 230.63-12.08 230.63-18.75 226.68-18.75ZM239.78-24.15L239.78-24.15 245.83-25.45Q246.28-21.6 246.43-18.15L246.43-18.15Q250.98-25.2 254.98-25.2L254.98-25.2 254.43-17.4Q251.53-17.4 249.85-16.88 248.18-16.35 246.43-14.8L246.43-14.8 246.43-13 246.98-1.25 240.28 0 240.88-12.15Q240.68-18.85 239.78-24.15ZM256.62-10.45Q256.62-16.85 260.07-21.3 263.52-25.75 268.15-25.75 272.77-25.75 275.35-22.75 277.92-19.75 277.92-14.8L277.92-14.8Q277.92-8.2 274.6-3.83 271.27 0.55 266.22 0.55L266.22 0.55Q262.07 0.55 259.35-2.58 256.62-5.7 256.62-10.45L256.62-10.45ZM272.32-12.2L272.32-12.2Q272.32-19.45 267.37-19.45L267.37-19.45Q262.22-19.45 262.22-12.65L262.22-12.65Q262.22-9.1 263.67-7.1 265.12-5.1 267.5-5.1 269.87-5.1 271.1-6.93 272.32-8.75 272.32-12.2Z" opacity="1" transform="matrix(1,0,0,1,0,0)" fill="black" class="wordmark-text-0" id="SvgjsPath1966"></path></svg></g></svg></g></svg></g></svg></g><g transform="matrix(1,0,0,1,254.60485263513652,0)"><svg viewBox="0 0 59.55610405868748 59.55610405868748" height="59.55610405868748" width="59.55610405868748"><g><svg xmlns:x="http://ns.adobe.com/Extensibility/1.0/" xmlns:i="http://ns.adobe.com/AdobeIllustrator/10.0/" xmlns:graph="http://ns.adobe.com/Graphs/1.0/" xmlns="http://www.w3.org/2000/svg" xmlns:xlink="http://www.w3.org/1999/xlink" version="1.1" x="0" y="0" viewBox="5 5 54 54" enable-background="new 0 0 64 64" xml:space="preserve" height="59.55610405868748" width="59.55610405868748" class="icon-icon-0" data-fill-palette-color="accent" id="SvgjsSvg1965"><g fill="black"><path d="M32 5C17.112 5 5 17.112 5 32s12.112 27 27 27 27-12.112 27-27S46.888 5 32 5zM51.77 47.275c-2.293-1.221-5.075-2.225-8.159-2.948 0.822-3.401 1.31-7.233 1.378-11.327h11.986C56.763 38.362 54.854 43.294 51.77 47.275zM7.025 33h4.144c0.428 1.357 1.684 2.351 3.181 2.351 1.537 0 2.822-1.046 3.215-2.459C17.698 32.956 17.842 33 18 33h1.012c0.068 4.034 0.542 7.816 1.343 11.181-3.115 0.679-5.946 1.638-8.326 2.838C9.062 43.083 7.233 38.247 7.025 33zM12.076 16.921c2.31 1.303 5.112 2.353 8.226 3.115-0.77 3.31-1.224 7.016-1.29 10.964H18c-0.158 0-0.302 0.044-0.435 0.109-0.393-1.414-1.678-2.459-3.215-2.459-1.497 0-2.753 0.993-3.181 2.351H7.025C7.234 25.726 9.082 20.868 12.076 16.921zM32 25c0.551 0 1 0.449 1 1s-0.449 1-1 1-1-0.449-1-1S31.449 25 32 25zM33 28.816c1.161-0.415 2-1.514 2-2.816s-0.839-2.401-2-2.816v-1.732c3.021-0.016 5.976-0.278 8.766-0.749 0.72 3.132 1.155 6.626 1.223 10.297H33V28.816zM33 19.452V7.113c3.437 0.743 6.471 5.258 8.271 11.65C38.643 19.196 35.854 19.436 33 19.452zM31 7.113v12.303c-2.863-0.087-5.625-0.39-8.203-0.891C24.605 12.259 27.607 7.846 31 7.113zM31 21.432v1.752c-1.162 0.415-2 1.514-2 2.816s0.838 2.401 2 2.815V31h-9.988c0.069-3.76 0.523-7.335 1.275-10.526C25.028 21.015 27.967 21.343 31 21.432zM15.701 32c0 0.745-0.606 1.351-1.351 1.351S13 32.745 13 32s0.606-1.351 1.351-1.351S15.701 31.255 15.701 32zM21.012 33H31v10.018c-2.985 0.034-5.9 0.304-8.65 0.781C21.56 40.541 21.083 36.866 21.012 33zM31 45.017v11.87c-3.347-0.723-6.313-5.023-8.129-11.152C25.453 45.297 28.191 45.05 31 45.017zM33 56.887v-11.86c0.064 0.002 0.13 0.002 0.193 0.004C33.616 46.177 34.709 47 36 47c1.125 0 2.095-0.629 2.608-1.548 0.846 0.111 1.676 0.241 2.489 0.392C39.279 51.916 36.327 56.168 33 56.887zM36 45c-0.552 0-1-0.448-1-1s0.448-1 1-1 1 0.448 1 1S36.552 45 36 45zM38.947 43.481C38.7 42.074 37.477 41 36 41c-1.313 0-2.42 0.854-2.825 2.03-0.058-0.001-0.116-0.002-0.175-0.003V33h9.988c-0.071 3.91-0.56 7.623-1.365 10.908C40.748 43.742 39.855 43.602 38.947 43.481zM44.988 31c-0.064-3.829-0.493-7.432-1.222-10.666 3.201-0.68 6.104-1.659 8.542-2.887 2.766 3.849 4.467 8.51 4.666 13.552H44.988zM51.047 15.833c-2.235 1.081-4.864 1.953-7.767 2.563-1.282-4.651-3.211-8.394-5.552-10.727C43.007 8.913 47.645 11.83 51.047 15.833zM26.272 7.67c-2.29 2.282-4.186 5.909-5.468 10.419-2.8-0.683-5.322-1.606-7.424-2.749C16.739 11.59 21.211 8.861 26.272 7.67zM13.338 48.611c2.173-1.047 4.719-1.893 7.522-2.498 1.281 4.417 3.156 7.969 5.412 10.217C21.189 55.134 16.702 52.386 13.338 48.611zM37.729 56.33c2.23-2.223 4.088-5.723 5.367-10.071 2.77 0.646 5.274 1.522 7.361 2.585C47.117 52.5 42.707 55.158 37.729 56.33z" fill="black"></path></g></svg><g></g></g></svg></g></svg></g></svg></g></svg></g><path d="M205.828 94.431L205.828 30.934 391.159 30.934 391.159 216.266 205.828 216.266 205.828 152.769 208.852 152.769 208.852 213.242 388.136 213.242 388.136 33.958 208.852 33.958 208.852 94.431Z" fill="black" stroke="transparent"></path></svg></g><defs><mask></mask></defs></svg><rect width="395.52" height="247.2" fill="black" stroke="none" visibility="hidden"></rect></g></mask><mask><g id="SvgjsG1964"><svg viewBox="0 0 395.52 247.2" height="247.2" width="395.52"><g><svg></svg></g><g><svg viewBox="0 0 395.52 247.2" height="247.2" width="395.52"><g transform="matrix(1,0,0,1,75.54432,100.43133565582772)"><svg viewBox="0 0 244.43135999999998 46.33732868834455" height="46.33732868834455" width="244.43135999999998"><g><svg viewBox="0 0 244.43135999999998 46.33732868834455" height="46.33732868834455" width="244.43135999999998"><g><svg viewBox="0 0 314.160956693824 59.55610405868748" height="46.33732868834455" width="244.43135999999998"><g transform="matrix(1,0,0,1,0,8.230981096388792)"><svg viewBox="0 0 244.43135999999998 43.0941418659099" height="43.0941418659099" width="244.43135999999998"><g id="SvgjsG1963"><svg viewBox="0 0 244.43135999999998 43.0941418659099" height="43.0941418659099" width="244.43135999999998" id="SvgjsSvg1962"><g><svg viewBox="0 0 244.43135999999998 43.0941418659099" height="43.0941418659099" width="244.43135999999998"><g transform="matrix(1,0,0,1,0,0)"><svg width="244.43135999999998" viewBox="-3.95 -38.7 281.87 49.70000000000001" height="43.0941418659099" data-palette-color="url(#8c767462-8835-4f03-8ecf-8bec471aefbb)"></svg></g></svg></g></svg></g></svg></g><g transform="matrix(1,0,0,1,254.60485263513652,0)"><svg viewBox="0 0 59.55610405868748 59.55610405868748" height="59.55610405868748" width="59.55610405868748"><g><svg xmlns:x="http://ns.adobe.com/Extensibility/1.0/" xmlns:i="http://ns.adobe.com/AdobeIllustrator/10.0/" xmlns:graph="http://ns.adobe.com/Graphs/1.0/" xmlns="http://www.w3.org/2000/svg" xmlns:xlink="http://www.w3.org/1999/xlink" version="1.1" x="0" y="0" viewBox="5 5 54 54" enable-background="new 0 0 64 64" xml:space="preserve" height="59.55610405868748" width="59.55610405868748" class="icon-icon-0" data-fill-palette-color="accent" id="SvgjsSvg1961"><g fill="black"><path d="M32 5C17.112 5 5 17.112 5 32s12.112 27 27 27 27-12.112 27-27S46.888 5 32 5zM51.77 47.275c-2.293-1.221-5.075-2.225-8.159-2.948 0.822-3.401 1.31-7.233 1.378-11.327h11.986C56.763 38.362 54.854 43.294 51.77 47.275zM7.025 33h4.144c0.428 1.357 1.684 2.351 3.181 2.351 1.537 0 2.822-1.046 3.215-2.459C17.698 32.956 17.842 33 18 33h1.012c0.068 4.034 0.542 7.816 1.343 11.181-3.115 0.679-5.946 1.638-8.326 2.838C9.062 43.083 7.233 38.247 7.025 33zM12.076 16.921c2.31 1.303 5.112 2.353 8.226 3.115-0.77 3.31-1.224 7.016-1.29 10.964H18c-0.158 0-0.302 0.044-0.435 0.109-0.393-1.414-1.678-2.459-3.215-2.459-1.497 0-2.753 0.993-3.181 2.351H7.025C7.234 25.726 9.082 20.868 12.076 16.921zM32 25c0.551 0 1 0.449 1 1s-0.449 1-1 1-1-0.449-1-1S31.449 25 32 25zM33 28.816c1.161-0.415 2-1.514 2-2.816s-0.839-2.401-2-2.816v-1.732c3.021-0.016 5.976-0.278 8.766-0.749 0.72 3.132 1.155 6.626 1.223 10.297H33V28.816zM33 19.452V7.113c3.437 0.743 6.471 5.258 8.271 11.65C38.643 19.196 35.854 19.436 33 19.452zM31 7.113v12.303c-2.863-0.087-5.625-0.39-8.203-0.891C24.605 12.259 27.607 7.846 31 7.113zM31 21.432v1.752c-1.162 0.415-2 1.514-2 2.816s0.838 2.401 2 2.815V31h-9.988c0.069-3.76 0.523-7.335 1.275-10.526C25.028 21.015 27.967 21.343 31 21.432zM15.701 32c0 0.745-0.606 1.351-1.351 1.351S13 32.745 13 32s0.606-1.351 1.351-1.351S15.701 31.255 15.701 32zM21.012 33H31v10.018c-2.985 0.034-5.9 0.304-8.65 0.781C21.56 40.541 21.083 36.866 21.012 33zM31 45.017v11.87c-3.347-0.723-6.313-5.023-8.129-11.152C25.453 45.297 28.191 45.05 31 45.017zM33 56.887v-11.86c0.064 0.002 0.13 0.002 0.193 0.004C33.616 46.177 34.709 47 36 47c1.125 0 2.095-0.629 2.608-1.548 0.846 0.111 1.676 0.241 2.489 0.392C39.279 51.916 36.327 56.168 33 56.887zM36 45c-0.552 0-1-0.448-1-1s0.448-1 1-1 1 0.448 1 1S36.552 45 36 45zM38.947 43.481C38.7 42.074 37.477 41 36 41c-1.313 0-2.42 0.854-2.825 2.03-0.058-0.001-0.116-0.002-0.175-0.003V33h9.988c-0.071 3.91-0.56 7.623-1.365 10.908C40.748 43.742 39.855 43.602 38.947 43.481zM44.988 31c-0.064-3.829-0.493-7.432-1.222-10.666 3.201-0.68 6.104-1.659 8.542-2.887 2.766 3.849 4.467 8.51 4.666 13.552H44.988zM51.047 15.833c-2.235 1.081-4.864 1.953-7.767 2.563-1.282-4.651-3.211-8.394-5.552-10.727C43.007 8.913 47.645 11.83 51.047 15.833zM26.272 7.67c-2.29 2.282-4.186 5.909-5.468 10.419-2.8-0.683-5.322-1.606-7.424-2.749C16.739 11.59 21.211 8.861 26.272 7.67zM13.338 48.611c2.173-1.047 4.719-1.893 7.522-2.498 1.281 4.417 3.156 7.969 5.412 10.217C21.189 55.134 16.702 52.386 13.338 48.611zM37.729 56.33c2.23-2.223 4.088-5.723 5.367-10.071 2.77 0.646 5.274 1.522 7.361 2.585C47.117 52.5 42.707 55.158 37.729 56.33z" fill="black"></path></g></svg><g></g></g></svg></g></svg></g></svg></g></svg></g><path d="M205.828 94.431L205.828 30.934 391.159 30.934 391.159 216.266 205.828 216.266 205.828 152.769 208.852 152.769 208.852 213.242 388.136 213.242 388.136 33.958 208.852 33.958 208.852 94.431Z" fill="black" stroke="transparent"></path></svg></g><defs><mask></mask></defs><mask><g id="SvgjsG1960"><svg viewBox="0 0 395.52 247.2" height="247.2" width="395.52"><g><svg></svg></g><g><svg viewBox="0 0 395.52 247.2" height="247.2" width="395.52"><g transform="matrix(1,0,0,1,75.54432,100.43133565582772)"><svg viewBox="0 0 244.43135999999998 46.33732868834455" height="46.33732868834455" width="244.43135999999998"><g><svg viewBox="0 0 244.43135999999998 46.33732868834455" height="46.33732868834455" width="244.43135999999998"><g><svg viewBox="0 0 314.160956693824 59.55610405868748" height="46.33732868834455" width="244.43135999999998"><g transform="matrix(1,0,0,1,0,8.230981096388792)"><svg viewBox="0 0 244.43135999999998 43.0941418659099" height="43.0941418659099" width="244.43135999999998"><g id="SvgjsG1959"><svg viewBox="0 0 244.43135999999998 43.0941418659099" height="43.0941418659099" width="244.43135999999998" id="SvgjsSvg1958"><g><svg viewBox="0 0 244.43135999999998 43.0941418659099" height="43.0941418659099" width="244.43135999999998"><g transform="matrix(1,0,0,1,0,0)"><svg width="244.43135999999998" viewBox="-3.95 -38.7 281.87 49.70000000000001" height="43.0941418659099" data-palette-color="url(#8c767462-8835-4f03-8ecf-8bec471aefbb)"><path d="M0.15 11L0.15 11Q-1.9 11-3.95 10.55L-3.95 10.55-2.4 4.85Q-0.7 5.3 0.78 5.3 2.25 5.3 2.9 4.2 3.55 3.1 3.55 0.25L3.55 0.25 3.5-12.15 2.95-24.2 9.65-25.45 9.05-13 9.6-1.7Q9.6 3.5 6.8 7.25 4 11 0.15 11ZM2.6-32.73Q2.6-34.45 3.9-35.77 5.2-37.1 6.93-37.1 8.65-37.1 9.53-36.18 10.4-35.25 10.4-33.43 10.4-31.6 9.15-30.25 7.9-28.9 6.23-28.9 4.55-28.9 3.58-29.95 2.6-31 2.6-32.73ZM20.25 0Q17.3 0 15.42-1.88 13.55-3.75 13.55-6.93 13.55-10.1 16.45-12.43 19.35-14.75 23.5-14.75L23.5-14.75 26.9-14.75 26.9-15.6Q26.9-18.05 25.9-18.95 24.9-19.85 22.15-19.85L22.15-19.85Q21-19.85 19.42-19.38 17.85-18.9 15.9-17.9L15.9-17.9 14.45-21.85Q16.6-23.35 19.67-24.55 22.75-25.75 24.75-25.75L24.75-25.75Q32.6-25.75 32.6-18.15L32.6-18.15 32.6-8.35Q32.6-5.55 34.35-2.1L34.35-2.1 29.05 0.15Q27.8-2.25 27.2-4.15L27.2-4.15Q24.45 0 20.25 0L20.25 0ZM22.35-5.1L22.35-5.1Q24.35-5.1 26.9-7.15L26.9-7.15 26.9-10.5Q24.25-11.1 22.6-11.1L22.6-11.1Q19.45-11.1 19.45-8.3L19.45-8.3Q19.45-6.85 20.25-5.98 21.05-5.1 22.35-5.1ZM45.35-14.4L47.2-6.25 47.85-6.25 49.5-13.1 52.2-25.45 58.4-24.7 54.65-12.3 51.5-0.6 42.95 0.15 40-12 36.4-24.15 43.2-25.4 45.35-14.4ZM66.69 0Q63.74 0 61.87-1.88 59.99-3.75 59.99-6.93 59.99-10.1 62.89-12.43 65.79-14.75 69.94-14.75L69.94-14.75 73.34-14.75 73.34-15.6Q73.34-18.05 72.34-18.95 71.34-19.85 68.59-19.85L68.59-19.85Q67.44-19.85 65.87-19.38 64.29-18.9 62.34-17.9L62.34-17.9 60.89-21.85Q63.04-23.35 66.12-24.55 69.19-25.75 71.19-25.75L71.19-25.75Q79.04-25.75 79.04-18.15L79.04-18.15 79.04-8.35Q79.04-5.55 80.79-2.1L80.79-2.1 75.49 0.15Q74.24-2.25 73.64-4.15L73.64-4.15Q70.89 0 66.69 0L66.69 0ZM68.79-5.1L68.79-5.1Q70.79-5.1 73.34-7.15L73.34-7.15 73.34-10.5Q70.69-11.1 69.04-11.1L69.04-11.1Q65.89-11.1 65.89-8.3L65.89-8.3Q65.89-6.85 66.69-5.98 67.49-5.1 68.79-5.1ZM98.34-4.9L98.34-4.9Q94.44 0 91.59 0L91.59 0Q88.04 0 85.77-2.9 83.49-5.8 83.49-10.35L83.49-10.35Q83.49-16.6 86.97-20.9 90.44-25.2 95.49-25.2L95.49-25.2 98.29-24.8 98.29-25.75 97.69-37.45 104.54-38.7 103.89-13 103.89-8.6Q103.89-5.6 105.39-1.7L105.39-1.7 99.99 0.55Q98.54-2.45 98.34-4.9ZM89.09-12.95Q89.09-9.75 90.27-7.95 91.44-6.15 93.67-6.15 95.89-6.15 98.29-7.95L98.29-7.95 98.29-18.75Q95.29-19.35 93.84-19.35L93.84-19.35Q91.59-19.35 90.34-17.75 89.09-16.15 89.09-12.95ZM128.59 11L106.94 11 107.34 6.55 128.99 6.55 128.59 11ZM152.04-14.4L153.79-6.25 154.44-6.25 156.04-13.1 158.64-25.45 164.74-24.7 161.09-12.3 158.04-0.6 149.84 0.15 147.09-12 146.84-12.8 143.49-0.6 135.53 0.15 132.64-12 129.19-24.15 135.74-25.4 137.78-14.4 139.59-6.25 140.24-6.25 144.53-20.5 143.49-24.15 149.94-25.4 152.04-14.4ZM177.03-5.1L177.03-5.1Q178.48-5.1 180.08-5.85 181.68-6.6 182.58-7.35L182.58-7.35 183.48-8.1 185.78-5.3Q185.28-4.45 184.23-3.35 183.18-2.25 182.11-1.48 181.03-0.7 179.26-0.08 177.48 0.55 175.58 0.55L175.58 0.55Q171.53 0.55 168.98-2.53 166.43-5.6 166.43-10.45L166.43-10.45Q166.43-16.55 169.98-21.15 173.53-25.75 178.28-25.75L178.28-25.75Q181.93-25.75 183.96-23.7 185.98-21.65 185.98-17.95L185.98-17.95Q185.98-15.75 185.23-12.95L185.23-12.95 184.23-11.9 171.73-10.75Q172.58-5.1 177.03-5.1ZM177.03-20.6L177.03-20.6Q174.83-20.6 173.33-18.82 171.83-17.05 171.58-14.3L171.58-14.3 180.08-15.35Q180.23-16.5 180.23-17.25L180.23-17.25Q180.23-20.6 177.03-20.6ZM203.58-25.25L203.58-25.25Q206.93-25.25 209.03-22.35 211.13-19.45 211.13-14.9L211.13-14.9Q211.13-8.35 207.71-4.17 204.28 0 198.83 0L198.83 0Q196.33 0 190.43-0.8L190.43-0.8 190.93-12.15 190.33-37.45 197.18-38.7 196.53-25.8 196.53-20.4Q197.08-21.2 197.88-22.1 198.68-23 200.38-24.13 202.08-25.25 203.58-25.25ZM201.63-18.75L201.63-18.75Q199.33-18.75 196.53-17.35L196.53-17.35 196.53-13 196.83-5.65Q198.93-5.4 200.78-5.4L200.78-5.4Q205.58-5.4 205.58-12.08 205.58-18.75 201.63-18.75ZM228.63-25.25L228.63-25.25Q231.83-25.25 234-22.45 236.18-19.65 236.18-14.9L236.18-14.9Q236.18-8.25 232.75-4.13 229.33 0 224.23 0L224.23 0Q223.18 0 221.88-0.15L221.88-0.15 222.13 9.4 215.28 10.65 215.93-12.15 215.98-12.15Q215.78-18.85 214.88-24.15L214.88-24.15 220.93-25.45Q221.23-22.8 221.43-20.2L221.43-20.2Q221.53-20.45 222.45-21.58 223.38-22.7 225.18-23.98 226.98-25.25 228.63-25.25ZM226.68-18.75L226.68-18.75Q224.03-18.75 221.53-17.3L221.53-17.3 221.53-13 221.73-5.85Q224.43-5.4 225.83-5.4L225.83-5.4Q230.63-5.4 230.63-12.08 230.63-18.75 226.68-18.75ZM239.78-24.15L239.78-24.15 245.83-25.45Q246.28-21.6 246.43-18.15L246.43-18.15Q250.98-25.2 254.98-25.2L254.98-25.2 254.43-17.4Q251.53-17.4 249.85-16.88 248.18-16.35 246.43-14.8L246.43-14.8 246.43-13 246.98-1.25 240.28 0 240.88-12.15Q240.68-18.85 239.78-24.15ZM256.62-10.45Q256.62-16.85 260.07-21.3 263.52-25.75 268.15-25.75 272.77-25.75 275.35-22.75 277.92-19.75 277.92-14.8L277.92-14.8Q277.92-8.2 274.6-3.83 271.27 0.55 266.22 0.55L266.22 0.55Q262.07 0.55 259.35-2.58 256.62-5.7 256.62-10.45L256.62-10.45ZM272.32-12.2L272.32-12.2Q272.32-19.45 267.37-19.45L267.37-19.45Q262.22-19.45 262.22-12.65L262.22-12.65Q262.22-9.1 263.67-7.1 265.12-5.1 267.5-5.1 269.87-5.1 271.1-6.93 272.32-8.75 272.32-12.2Z" opacity="1" transform="matrix(1,0,0,1,0,0)" fill="black" class="wordmark-text-0" id="SvgjsPath1957"></path></svg></g></svg></g></svg></g></svg></g><g transform="matrix(1,0,0,1,254.60485263513652,0)"><svg viewBox="0 0 59.55610405868748 59.55610405868748" height="59.55610405868748" width="59.55610405868748"><g><svg xmlns:x="http://ns.adobe.com/Extensibility/1.0/" xmlns:i="http://ns.adobe.com/AdobeIllustrator/10.0/" xmlns:graph="http://ns.adobe.com/Graphs/1.0/" xmlns="http://www.w3.org/2000/svg" xmlns:xlink="http://www.w3.org/1999/xlink" version="1.1" x="0" y="0" viewBox="5 5 54 54" enable-background="new 0 0 64 64" xml:space="preserve" height="59.55610405868748" width="59.55610405868748" class="icon-icon-0" data-fill-palette-color="accent" id="SvgjsSvg1956"><g fill="black"><path d="M32 5C17.112 5 5 17.112 5 32s12.112 27 27 27 27-12.112 27-27S46.888 5 32 5zM51.77 47.275c-2.293-1.221-5.075-2.225-8.159-2.948 0.822-3.401 1.31-7.233 1.378-11.327h11.986C56.763 38.362 54.854 43.294 51.77 47.275zM7.025 33h4.144c0.428 1.357 1.684 2.351 3.181 2.351 1.537 0 2.822-1.046 3.215-2.459C17.698 32.956 17.842 33 18 33h1.012c0.068 4.034 0.542 7.816 1.343 11.181-3.115 0.679-5.946 1.638-8.326 2.838C9.062 43.083 7.233 38.247 7.025 33zM12.076 16.921c2.31 1.303 5.112 2.353 8.226 3.115-0.77 3.31-1.224 7.016-1.29 10.964H18c-0.158 0-0.302 0.044-0.435 0.109-0.393-1.414-1.678-2.459-3.215-2.459-1.497 0-2.753 0.993-3.181 2.351H7.025C7.234 25.726 9.082 20.868 12.076 16.921zM32 25c0.551 0 1 0.449 1 1s-0.449 1-1 1-1-0.449-1-1S31.449 25 32 25zM33 28.816c1.161-0.415 2-1.514 2-2.816s-0.839-2.401-2-2.816v-1.732c3.021-0.016 5.976-0.278 8.766-0.749 0.72 3.132 1.155 6.626 1.223 10.297H33V28.816zM33 19.452V7.113c3.437 0.743 6.471 5.258 8.271 11.65C38.643 19.196 35.854 19.436 33 19.452zM31 7.113v12.303c-2.863-0.087-5.625-0.39-8.203-0.891C24.605 12.259 27.607 7.846 31 7.113zM31 21.432v1.752c-1.162 0.415-2 1.514-2 2.816s0.838 2.401 2 2.815V31h-9.988c0.069-3.76 0.523-7.335 1.275-10.526C25.028 21.015 27.967 21.343 31 21.432zM15.701 32c0 0.745-0.606 1.351-1.351 1.351S13 32.745 13 32s0.606-1.351 1.351-1.351S15.701 31.255 15.701 32zM21.012 33H31v10.018c-2.985 0.034-5.9 0.304-8.65 0.781C21.56 40.541 21.083 36.866 21.012 33zM31 45.017v11.87c-3.347-0.723-6.313-5.023-8.129-11.152C25.453 45.297 28.191 45.05 31 45.017zM33 56.887v-11.86c0.064 0.002 0.13 0.002 0.193 0.004C33.616 46.177 34.709 47 36 47c1.125 0 2.095-0.629 2.608-1.548 0.846 0.111 1.676 0.241 2.489 0.392C39.279 51.916 36.327 56.168 33 56.887zM36 45c-0.552 0-1-0.448-1-1s0.448-1 1-1 1 0.448 1 1S36.552 45 36 45zM38.947 43.481C38.7 42.074 37.477 41 36 41c-1.313 0-2.42 0.854-2.825 2.03-0.058-0.001-0.116-0.002-0.175-0.003V33h9.988c-0.071 3.91-0.56 7.623-1.365 10.908C40.748 43.742 39.855 43.602 38.947 43.481zM44.988 31c-0.064-3.829-0.493-7.432-1.222-10.666 3.201-0.68 6.104-1.659 8.542-2.887 2.766 3.849 4.467 8.51 4.666 13.552H44.988zM51.047 15.833c-2.235 1.081-4.864 1.953-7.767 2.563-1.282-4.651-3.211-8.394-5.552-10.727C43.007 8.913 47.645 11.83 51.047 15.833zM26.272 7.67c-2.29 2.282-4.186 5.909-5.468 10.419-2.8-0.683-5.322-1.606-7.424-2.749C16.739 11.59 21.211 8.861 26.272 7.67zM13.338 48.611c2.173-1.047 4.719-1.893 7.522-2.498 1.281 4.417 3.156 7.969 5.412 10.217C21.189 55.134 16.702 52.386 13.338 48.611zM37.729 56.33c2.23-2.223 4.088-5.723 5.367-10.071 2.77 0.646 5.274 1.522 7.361 2.585C47.117 52.5 42.707 55.158 37.729 56.33z" fill="black"></path></g></svg><g></g></g></svg></g></svg></g></svg></g></svg></g><path d="M205.828 94.431L205.828 30.934 391.159 30.934 391.159 216.266 205.828 216.266 205.828 152.769 208.852 152.769 208.852 213.242 388.136 213.242 388.136 33.958 208.852 33.958 208.852 94.431Z" fill="black" stroke="transparent"></path></svg></g><defs><mask></mask></defs></svg><rect width="395.52" height="247.2" fill="black" stroke="none" visibility="hidden"></rect></g></mask></svg><rect width="395.52" height="247.2" fill="black" stroke="none" visibility="hidden"></rect></g></mask></svg><rect width="395.52" height="247.2" fill="black" stroke="none" visibility="hidden"></rect></g></mask><linearGradient x1="0" x2="1" y1="0.578" y2="0.595" id="68ca3b8d-29da-403c-8d68-744af04c8da2"><stop stop-color="#6ee2f5" offset="0"></stop><stop stop-color="#6454f0" offset="1"></stop></linearGradient></svg><rect width="395.52" height="247.2" fill="none" stroke="none" visibility="hidden"></rect></g></svg></g></svg>