<svg width="182" height="182" viewBox="0 0 182 182" fill="none" xmlns="http://www.w3.org/2000/svg">
<path d="M2 30C2 14.536 14.536 2 30 2H152C167.464 2 180 14.536 180 30V152C180 167.464 167.464 180 152 180H30C14.536 180 2 167.464 2 152V30Z" fill="#323131"/>
<path d="M2 30C2 14.536 14.536 2 30 2H152C167.464 2 180 14.536 180 30V152C180 167.464 167.464 180 152 180H30C14.536 180 2 167.464 2 152V30Z" stroke="#4E504F" stroke-opacity="0.1" stroke-width="4"/>
<path d="M2 30C2 14.536 14.536 2 30 2H152C167.464 2 180 14.536 180 30V152C180 167.464 167.464 180 152 180H30C14.536 180 2 167.464 2 152V30Z" stroke="url(#paint0_linear_226_85)" stroke-width="4"/>
<defs>
<linearGradient id="paint0_linear_226_85" x1="91" y1="0" x2="91" y2="182" gradientUnits="userSpaceOnUse">
<stop stop-color="#737574" stop-opacity="0.2"/>
<stop offset="0.574839" stop-color="#737574" stop-opacity="0"/>
</linearGradient>
</defs>
</svg>
