<svg width="947" height="144" viewBox="0 0 947 144" fill="none" xmlns="http://www.w3.org/2000/svg">
<mask id="path-1-outside-1_232_90" maskUnits="userSpaceOnUse" x="-826" y="-1" width="1774" height="146" fill="black">
<rect fill="white" x="-826" y="-1" width="1774" height="146"/>
<path d="M-722.2 2.4V25H-759.4V142H-787.4V25H-824.6V2.4H-722.2ZM-636.97 143.4C-650.037 143.4 -662.037 140.333 -672.97 134.2C-683.904 128.067 -692.57 119.6 -698.97 108.8C-705.37 97.8667 -708.57 85.5333 -708.57 71.8C-708.57 58.2 -705.37 46 -698.97 35.2C-692.57 24.2667 -683.904 15.7333 -672.97 9.59999C-662.037 3.46666 -650.037 0.399999 -636.97 0.399999C-623.77 0.399999 -611.77 3.46666 -600.97 9.59999C-590.037 15.7333 -581.437 24.2667 -575.17 35.2C-568.77 46 -565.57 58.2 -565.57 71.8C-565.57 85.5333 -568.77 97.8667 -575.17 108.8C-581.437 119.6 -590.037 128.067 -600.97 134.2C-611.904 140.333 -623.904 143.4 -636.97 143.4ZM-636.97 118.4C-628.57 118.4 -621.17 116.533 -614.77 112.8C-608.37 108.933 -603.37 103.467 -599.77 96.4C-596.17 89.3333 -594.37 81.1333 -594.37 71.8C-594.37 62.4667 -596.17 54.3333 -599.77 47.4C-603.37 40.3333 -608.37 34.9333 -614.77 31.2C-621.17 27.4667 -628.57 25.6 -636.97 25.6C-645.37 25.6 -652.837 27.4667 -659.37 31.2C-665.77 34.9333 -670.77 40.3333 -674.37 47.4C-677.97 54.3333 -679.77 62.4667 -679.77 71.8C-679.77 81.1333 -677.97 89.3333 -674.37 96.4C-670.77 103.467 -665.77 108.933 -659.37 112.8C-652.837 116.533 -645.37 118.4 -636.97 118.4ZM-479.939 143.4C-493.006 143.4 -505.006 140.333 -515.939 134.2C-526.872 128.067 -535.539 119.6 -541.939 108.8C-548.339 97.8667 -551.539 85.5333 -551.539 71.8C-551.539 58.2 -548.339 46 -541.939 35.2C-535.539 24.2667 -526.872 15.7333 -515.939 9.59999C-505.006 3.46666 -493.006 0.399999 -479.939 0.399999C-466.739 0.399999 -454.739 3.46666 -443.939 9.59999C-433.006 15.7333 -424.406 24.2667 -418.139 35.2C-411.739 46 -408.539 58.2 -408.539 71.8C-408.539 85.5333 -411.739 97.8667 -418.139 108.8C-424.406 119.6 -433.006 128.067 -443.939 134.2C-454.872 140.333 -466.872 143.4 -479.939 143.4ZM-479.939 118.4C-471.539 118.4 -464.139 116.533 -457.739 112.8C-451.339 108.933 -446.339 103.467 -442.739 96.4C-439.139 89.3333 -437.339 81.1333 -437.339 71.8C-437.339 62.4667 -439.139 54.3333 -442.739 47.4C-446.339 40.3333 -451.339 34.9333 -457.739 31.2C-464.139 27.4667 -471.539 25.6 -479.939 25.6C-488.339 25.6 -495.806 27.4667 -502.339 31.2C-508.739 34.9333 -513.739 40.3333 -517.339 47.4C-520.939 54.3333 -522.739 62.4667 -522.739 71.8C-522.739 81.1333 -520.939 89.3333 -517.339 96.4C-513.739 103.467 -508.739 108.933 -502.339 112.8C-495.806 116.533 -488.339 118.4 -479.939 118.4ZM-359.708 119.8H-313.708V142H-387.708V2.4H-359.708V119.8ZM-247.711 143.4C-257.444 143.4 -266.244 141.733 -274.111 138.4C-281.844 135.067 -287.978 130.267 -292.511 124C-297.044 117.733 -299.378 110.333 -299.511 101.8H-269.511C-269.111 107.533 -267.111 112.067 -263.511 115.4C-259.778 118.733 -254.711 120.4 -248.311 120.4C-241.778 120.4 -236.644 118.867 -232.911 115.8C-229.178 112.6 -227.311 108.467 -227.311 103.4C-227.311 99.2667 -228.578 95.8667 -231.111 93.2C-233.644 90.5333 -236.844 88.4667 -240.711 87C-244.444 85.4 -249.644 83.6667 -256.311 81.8C-265.378 79.1333 -272.778 76.5333 -278.511 74C-284.111 71.3333 -288.978 67.4 -293.111 62.2C-297.111 56.8667 -299.111 49.8 -299.111 41C-299.111 32.7333 -297.044 25.5333 -292.911 19.4C-288.778 13.2667 -282.978 8.59999 -275.511 5.39999C-268.044 2.06666 -259.511 0.399999 -249.911 0.399999C-235.511 0.399999 -223.844 3.93333 -214.911 11C-205.844 17.9333 -200.844 27.6667 -199.911 40.2H-230.711C-230.978 35.4 -233.044 31.4667 -236.911 28.4C-240.644 25.2 -245.644 23.6 -251.911 23.6C-257.378 23.6 -261.778 25 -265.111 27.8C-268.311 30.6 -269.911 34.6667 -269.911 40C-269.911 43.7333 -268.711 46.8667 -266.311 49.4C-263.778 51.8 -260.711 53.8 -257.111 55.4C-253.378 56.8667 -248.178 58.6 -241.511 60.6C-232.444 63.2667 -225.044 65.9333 -219.311 68.6C-213.578 71.2667 -208.644 75.2667 -204.511 80.6C-200.378 85.9333 -198.311 92.9333 -198.311 101.6C-198.311 109.067 -200.244 116 -204.111 122.4C-207.978 128.8 -213.644 133.933 -221.111 137.8C-228.578 141.533 -237.444 143.4 -247.711 143.4ZM-40.7797 115.4H-96.3797L-105.58 142H-134.98L-84.7797 2.19999H-52.1797L-1.97968 142H-31.5797L-40.7797 115.4ZM-48.3797 93L-68.5797 34.6L-88.7797 93H-48.3797ZM136.184 142H108.184L44.7844 46.2V142H16.7844V2.19999H44.7844L108.184 98.2V2.19999H136.184V142ZM212.655 2.4C227.321 2.4 240.188 5.26666 251.255 11C262.455 16.7333 271.055 24.9333 277.055 35.6C283.188 46.1333 286.255 58.4 286.255 72.4C286.255 86.4 283.188 98.6667 277.055 109.2C271.055 119.6 262.455 127.667 251.255 133.4C240.188 139.133 227.321 142 212.655 142H163.855V2.4H212.655ZM211.655 118.2C226.321 118.2 237.655 114.2 245.655 106.2C253.655 98.2 257.655 86.9333 257.655 72.4C257.655 57.8667 253.655 46.5333 245.655 38.4C237.655 30.1333 226.321 26 211.655 26H191.855V118.2H211.655ZM403.07 143.4C393.337 143.4 384.537 141.733 376.67 138.4C368.937 135.067 362.804 130.267 358.27 124C353.737 117.733 351.404 110.333 351.27 101.8H381.27C381.67 107.533 383.67 112.067 387.27 115.4C391.004 118.733 396.07 120.4 402.47 120.4C409.004 120.4 414.137 118.867 417.87 115.8C421.604 112.6 423.47 108.467 423.47 103.4C423.47 99.2667 422.204 95.8667 419.67 93.2C417.137 90.5333 413.937 88.4667 410.07 87C406.337 85.4 401.137 83.6667 394.47 81.8C385.404 79.1333 378.004 76.5333 372.27 74C366.67 71.3333 361.804 67.4 357.67 62.2C353.67 56.8667 351.67 49.8 351.67 41C351.67 32.7333 353.737 25.5333 357.87 19.4C362.004 13.2667 367.804 8.59999 375.27 5.39999C382.737 2.06666 391.27 0.399999 400.87 0.399999C415.27 0.399999 426.937 3.93333 435.87 11C444.937 17.9333 449.937 27.6667 450.87 40.2H420.07C419.804 35.4 417.737 31.4667 413.87 28.4C410.137 25.2 405.137 23.6 398.87 23.6C393.404 23.6 389.004 25 385.67 27.8C382.47 30.6 380.87 34.6667 380.87 40C380.87 43.7333 382.07 46.8667 384.47 49.4C387.004 51.8 390.07 53.8 393.67 55.4C397.404 56.8667 402.604 58.6 409.27 60.6C418.337 63.2667 425.737 65.9333 431.47 68.6C437.204 71.2667 442.137 75.2667 446.27 80.6C450.404 85.9333 452.47 92.9333 452.47 101.6C452.47 109.067 450.537 116 446.67 122.4C442.804 128.8 437.137 133.933 429.67 137.8C422.204 141.533 413.337 143.4 403.07 143.4ZM555.545 142L504.745 79.8V142H476.745V2.4H504.745V65L555.545 2.4H589.345L531.745 71.6L590.945 142H555.545ZM637.363 2.4V142H609.363V2.4H637.363ZM693.027 119.8H739.027V142H665.027V2.4H693.027V119.8ZM784.823 119.8H830.823V142H756.823V2.4H784.823V119.8ZM896.82 143.4C887.087 143.4 878.287 141.733 870.42 138.4C862.687 135.067 856.554 130.267 852.02 124C847.487 117.733 845.154 110.333 845.02 101.8H875.02C875.42 107.533 877.42 112.067 881.02 115.4C884.754 118.733 889.82 120.4 896.22 120.4C902.754 120.4 907.887 118.867 911.62 115.8C915.354 112.6 917.22 108.467 917.22 103.4C917.22 99.2667 915.954 95.8667 913.42 93.2C910.887 90.5333 907.687 88.4667 903.82 87C900.087 85.4 894.887 83.6667 888.22 81.8C879.154 79.1333 871.754 76.5333 866.02 74C860.42 71.3333 855.554 67.4 851.42 62.2C847.42 56.8667 845.42 49.8 845.42 41C845.42 32.7333 847.487 25.5333 851.62 19.4C855.754 13.2667 861.554 8.59999 869.02 5.39999C876.487 2.06666 885.02 0.399999 894.62 0.399999C909.02 0.399999 920.687 3.93333 929.62 11C938.687 17.9333 943.687 27.6667 944.62 40.2H913.82C913.554 35.4 911.487 31.4667 907.62 28.4C903.887 25.2 898.887 23.6 892.62 23.6C887.154 23.6 882.754 25 879.42 27.8C876.22 30.6 874.62 34.6667 874.62 40C874.62 43.7333 875.82 46.8667 878.22 49.4C880.754 51.8 883.82 53.8 887.42 55.4C891.154 56.8667 896.354 58.6 903.02 60.6C912.087 63.2667 919.487 65.9333 925.22 68.6C930.954 71.2667 935.887 75.2667 940.02 80.6C944.154 85.9333 946.22 92.9333 946.22 101.6C946.22 109.067 944.287 116 940.42 122.4C936.554 128.8 930.887 133.933 923.42 137.8C915.954 141.533 907.087 143.4 896.82 143.4Z"/>
</mask>
<path d="M-722.2 2.39999H-721.2V1.39999H-722.2V2.39999ZM-722.2 25V26H-721.2V25H-722.2ZM-759.4 25V24H-760.4V25H-759.4ZM-759.4 142V143H-758.4V142H-759.4ZM-787.4 142H-788.4V143H-787.4V142ZM-787.4 25H-786.4V24H-787.4V25ZM-824.6 25H-825.6V26H-824.6V25ZM-824.6 2.39999V1.39999H-825.6V2.39999H-824.6ZM-723.2 2.39999V25H-721.2V2.39999H-723.2ZM-722.2 24H-759.4V26H-722.2V24ZM-760.4 25V142H-758.4V25H-760.4ZM-759.4 141H-787.4V143H-759.4V141ZM-786.4 142V25H-788.4V142H-786.4ZM-787.4 24H-824.6V26H-787.4V24ZM-823.6 25V2.39999H-825.6V25H-823.6ZM-824.6 3.39999H-722.2V1.39999H-824.6V3.39999ZM-672.97 134.2L-672.481 133.328L-672.97 134.2ZM-698.97 108.8L-699.833 109.305L-699.831 109.31L-698.97 108.8ZM-698.97 35.2L-698.11 35.7098L-698.107 35.7052L-698.97 35.2ZM-672.97 9.59999L-673.46 8.72784L-672.97 9.59999ZM-600.97 9.59999L-601.464 10.4696L-601.46 10.4721L-600.97 9.59999ZM-575.17 35.2L-576.038 35.6973L-576.034 35.7036L-576.031 35.7098L-575.17 35.2ZM-575.17 108.8L-576.033 108.295L-576.035 108.298L-575.17 108.8ZM-600.97 134.2L-601.46 133.328L-600.97 134.2ZM-614.77 112.8L-614.266 113.664L-614.26 113.66L-614.253 113.656L-614.77 112.8ZM-599.77 96.4L-598.879 96.8539L-599.77 96.4ZM-599.77 47.4L-600.661 47.8539L-600.658 47.8608L-599.77 47.4ZM-614.77 31.2L-615.274 32.0638L-614.77 31.2ZM-659.37 31.2L-659.866 30.3317L-659.874 30.3362L-659.37 31.2ZM-674.37 47.4L-673.483 47.8608L-673.479 47.8539L-674.37 47.4ZM-674.37 96.4L-673.479 95.9461L-674.37 96.4ZM-659.37 112.8L-659.887 113.656L-659.877 113.662L-659.866 113.668L-659.37 112.8ZM-636.97 142.4C-649.873 142.4 -661.704 139.374 -672.481 133.328L-673.46 135.072C-662.37 141.293 -650.201 144.4 -636.97 144.4V142.4ZM-672.481 133.328C-683.261 127.281 -691.8 118.939 -698.11 108.29L-699.831 109.31C-693.341 120.261 -684.547 128.853 -673.46 135.072L-672.481 133.328ZM-698.107 108.295C-704.41 97.5275 -707.57 85.3712 -707.57 71.8H-709.57C-709.57 85.6955 -706.331 98.2058 -699.833 109.305L-698.107 108.295ZM-707.57 71.8C-707.57 58.3639 -704.411 46.3427 -698.11 35.7098L-699.831 34.6902C-706.33 45.6573 -709.57 58.0361 -709.57 71.8H-707.57ZM-698.107 35.7052C-691.796 24.9235 -683.258 16.5176 -672.481 10.4721L-673.46 8.72784C-684.55 14.9491 -693.345 23.6098 -699.833 34.6948L-698.107 35.7052ZM-672.481 10.4721C-661.704 4.42625 -649.873 1.4 -636.97 1.4V-0.599998C-650.201 -0.599998 -662.37 2.50707 -673.46 8.72784L-672.481 10.4721ZM-636.97 1.4C-623.932 1.4 -612.104 4.42711 -601.464 10.4696L-600.476 8.73042C-611.437 2.50622 -623.608 -0.599998 -636.97 -0.599998V1.4ZM-601.46 10.4721C-590.685 16.5165 -582.215 24.9199 -576.038 35.6973L-574.303 34.7027C-580.659 23.6134 -589.389 14.9501 -600.481 8.72784L-601.46 10.4721ZM-576.031 35.7098C-569.73 46.3427 -566.57 58.3639 -566.57 71.8H-564.57C-564.57 58.0361 -567.811 45.6573 -574.31 34.6902L-576.031 35.7098ZM-566.57 71.8C-566.57 85.3712 -569.73 97.5275 -576.033 108.295L-574.307 109.305C-567.81 98.2058 -564.57 85.6955 -564.57 71.8H-566.57ZM-576.035 108.298C-582.212 118.943 -590.682 127.282 -601.46 133.328L-600.481 135.072C-589.392 128.852 -580.662 120.257 -574.305 109.302L-576.035 108.298ZM-601.46 133.328C-612.237 139.374 -624.067 142.4 -636.97 142.4V144.4C-623.74 144.4 -611.57 141.293 -600.481 135.072L-601.46 133.328ZM-636.97 119.4C-628.417 119.4 -620.839 117.498 -614.266 113.664L-615.274 111.936C-621.502 115.569 -628.723 117.4 -636.97 117.4V119.4ZM-614.253 113.656C-607.684 109.687 -602.559 104.076 -598.879 96.8539L-600.661 95.9461C-604.182 102.857 -609.057 108.18 -615.287 111.944L-614.253 113.656ZM-598.879 96.8539C-595.196 89.6238 -593.37 81.2633 -593.37 71.8H-595.37C-595.37 81.0034 -597.145 89.0428 -600.661 95.9461L-598.879 96.8539ZM-593.37 71.8C-593.37 62.3373 -595.196 54.0401 -598.883 46.9392L-600.658 47.8608C-597.145 54.6266 -595.37 62.596 -595.37 71.8H-593.37ZM-598.879 46.9461C-602.56 39.7211 -607.689 34.1731 -614.266 30.3362L-615.274 32.0638C-609.052 35.6936 -604.181 40.9456 -600.661 47.8539L-598.879 46.9461ZM-614.266 30.3362C-620.839 26.5023 -628.417 24.6 -636.97 24.6V26.6C-628.723 26.6 -621.502 28.4311 -615.274 32.0638L-614.266 30.3362ZM-636.97 24.6C-645.524 24.6 -653.165 26.5024 -659.866 30.3318L-658.874 32.0682C-652.509 28.431 -645.217 26.6 -636.97 26.6V24.6ZM-659.874 30.3362C-666.452 34.1731 -671.581 39.7211 -675.261 46.9461L-673.479 47.8539C-669.96 40.9456 -665.089 35.6936 -658.866 32.0638L-659.874 30.3362ZM-675.258 46.9392C-678.945 54.0401 -680.77 62.3373 -680.77 71.8H-678.77C-678.77 62.596 -676.996 54.6266 -673.483 47.8608L-675.258 46.9392ZM-680.77 71.8C-680.77 81.2633 -678.945 89.6238 -675.261 96.8539L-673.479 95.9461C-676.996 89.0428 -678.77 81.0034 -678.77 71.8H-680.77ZM-675.261 96.8539C-671.582 104.076 -666.457 109.687 -659.887 113.656L-658.853 111.944C-665.084 108.18 -669.959 102.857 -673.479 95.9461L-675.261 96.8539ZM-659.866 113.668C-653.165 117.498 -645.524 119.4 -636.97 119.4V117.4C-645.217 117.4 -652.509 115.569 -658.874 111.932L-659.866 113.668ZM-515.939 134.2L-515.45 133.328L-515.939 134.2ZM-541.939 108.8L-542.802 109.305L-542.799 109.31L-541.939 108.8ZM-541.939 35.2L-541.079 35.7098L-541.076 35.7052L-541.939 35.2ZM-515.939 9.59999L-516.428 8.72784L-515.939 9.59999ZM-443.939 9.59999L-444.433 10.4696L-444.428 10.4721L-443.939 9.59999ZM-418.139 35.2L-419.007 35.6973L-419.003 35.7036L-418.999 35.7098L-418.139 35.2ZM-418.139 108.8L-419.002 108.295L-419.004 108.298L-418.139 108.8ZM-443.939 134.2L-444.428 133.328L-443.939 134.2ZM-457.739 112.8L-457.235 113.664L-457.229 113.66L-457.222 113.656L-457.739 112.8ZM-442.739 96.4L-441.848 96.8539L-442.739 96.4ZM-442.739 47.4L-443.63 47.8539L-443.627 47.8608L-442.739 47.4ZM-457.739 31.2L-458.243 32.0638L-457.739 31.2ZM-502.339 31.2L-502.835 30.3317L-502.843 30.3362L-502.339 31.2ZM-517.339 47.4L-516.452 47.8608L-516.448 47.8539L-517.339 47.4ZM-517.339 96.4L-516.448 95.9461L-517.339 96.4ZM-502.339 112.8L-502.856 113.656L-502.846 113.662L-502.835 113.668L-502.339 112.8ZM-479.939 142.4C-492.842 142.4 -504.672 139.374 -515.45 133.328L-516.428 135.072C-505.339 141.293 -493.17 144.4 -479.939 144.4V142.4ZM-515.45 133.328C-526.23 127.281 -534.768 118.939 -541.079 108.29L-542.799 109.31C-536.31 120.261 -527.515 128.853 -516.428 135.072L-515.45 133.328ZM-541.076 108.295C-547.379 97.5275 -550.539 85.3712 -550.539 71.8H-552.539C-552.539 85.6955 -549.299 98.2058 -542.802 109.305L-541.076 108.295ZM-550.539 71.8C-550.539 58.3639 -547.38 46.3427 -541.079 35.7098L-542.799 34.6902C-549.298 45.6573 -552.539 58.0361 -552.539 71.8H-550.539ZM-541.076 35.7052C-534.765 24.9235 -526.226 16.5176 -515.45 10.4721L-516.428 8.72784C-527.518 14.9491 -536.313 23.6098 -542.802 34.6948L-541.076 35.7052ZM-515.45 10.4721C-504.672 4.42625 -492.842 1.4 -479.939 1.4V-0.599998C-493.17 -0.599998 -505.339 2.50707 -516.428 8.72784L-515.45 10.4721ZM-479.939 1.4C-466.901 1.4 -455.073 4.42711 -444.433 10.4696L-443.445 8.73042C-454.405 2.50622 -466.577 -0.599998 -479.939 -0.599998V1.4ZM-444.428 10.4721C-433.654 16.5165 -425.184 24.9199 -419.007 35.6973L-417.271 34.7027C-423.628 23.6134 -432.358 14.9501 -443.45 8.72784L-444.428 10.4721ZM-418.999 35.7098C-412.698 46.3427 -409.539 58.3639 -409.539 71.8H-407.539C-407.539 58.0361 -410.78 45.6573 -417.279 34.6902L-418.999 35.7098ZM-409.539 71.8C-409.539 85.3712 -412.699 97.5275 -419.002 108.295L-417.276 109.305C-410.779 98.2058 -407.539 85.6955 -407.539 71.8H-409.539ZM-419.004 108.298C-425.18 118.943 -433.65 127.282 -444.428 133.328L-443.45 135.072C-432.361 128.852 -423.631 120.257 -417.274 109.302L-419.004 108.298ZM-444.428 133.328C-455.206 139.374 -467.036 142.4 -479.939 142.4V144.4C-466.709 144.4 -454.539 141.293 -443.45 135.072L-444.428 133.328ZM-479.939 119.4C-471.386 119.4 -463.808 117.498 -457.235 113.664L-458.243 111.936C-464.47 115.569 -471.692 117.4 -479.939 117.4V119.4ZM-457.222 113.656C-450.652 109.687 -445.527 104.076 -441.848 96.8539L-443.63 95.9461C-447.151 102.857 -452.026 108.18 -458.256 111.944L-457.222 113.656ZM-441.848 96.8539C-438.165 89.6238 -436.339 81.2633 -436.339 71.8H-438.339C-438.339 81.0034 -440.113 89.0428 -443.63 95.9461L-441.848 96.8539ZM-436.339 71.8C-436.339 62.3373 -438.165 54.0401 -441.852 46.9392L-443.627 47.8608C-440.114 54.6266 -438.339 62.596 -438.339 71.8H-436.339ZM-441.848 46.9461C-445.529 39.7211 -450.658 34.1731 -457.235 30.3362L-458.243 32.0638C-452.02 35.6936 -447.149 40.9456 -443.63 47.8539L-441.848 46.9461ZM-457.235 30.3362C-463.808 26.5023 -471.386 24.6 -479.939 24.6V26.6C-471.692 26.6 -464.47 28.4311 -458.243 32.0638L-457.235 30.3362ZM-479.939 24.6C-488.492 24.6 -496.134 26.5024 -502.835 30.3318L-501.843 32.0682C-495.478 28.431 -488.186 26.6 -479.939 26.6V24.6ZM-502.843 30.3362C-509.42 34.1731 -514.549 39.7211 -518.23 46.9461L-516.448 47.8539C-512.929 40.9456 -508.058 35.6936 -501.835 32.0638L-502.843 30.3362ZM-518.227 46.9392C-521.914 54.0401 -523.739 62.3373 -523.739 71.8H-521.739C-521.739 62.596 -519.965 54.6266 -516.452 47.8608L-518.227 46.9392ZM-523.739 71.8C-523.739 81.2633 -521.913 89.6238 -518.23 96.8539L-516.448 95.9461C-519.965 89.0428 -521.739 81.0034 -521.739 71.8H-523.739ZM-518.23 96.8539C-514.551 104.076 -509.426 109.687 -502.856 113.656L-501.822 111.944C-508.052 108.18 -512.927 102.857 -516.448 95.9461L-518.23 96.8539ZM-502.835 113.668C-496.134 117.498 -488.492 119.4 -479.939 119.4V117.4C-488.186 117.4 -495.478 115.569 -501.843 111.932L-502.835 113.668ZM-359.708 119.8H-360.708V120.8H-359.708V119.8ZM-313.708 119.8H-312.708V118.8H-313.708V119.8ZM-313.708 142V143H-312.708V142H-313.708ZM-387.708 142H-388.708V143H-387.708V142ZM-387.708 2.39999V1.39999H-388.708V2.39999H-387.708ZM-359.708 2.39999H-358.708V1.39999H-359.708V2.39999ZM-359.708 120.8H-313.708V118.8H-359.708V120.8ZM-314.708 119.8V142H-312.708V119.8H-314.708ZM-313.708 141H-387.708V143H-313.708V141ZM-386.708 142V2.39999H-388.708V142H-386.708ZM-387.708 3.39999H-359.708V1.39999H-387.708V3.39999ZM-360.708 2.39999V119.8H-358.708V2.39999H-360.708ZM-274.111 138.4L-274.507 139.318L-274.501 139.321L-274.111 138.4ZM-292.511 124L-293.321 124.586L-292.511 124ZM-299.511 101.8V100.8H-300.527L-300.511 101.816L-299.511 101.8ZM-269.511 101.8L-268.513 101.73L-268.578 100.8H-269.511V101.8ZM-263.511 115.4L-264.19 116.134L-264.184 116.14L-264.177 116.146L-263.511 115.4ZM-232.911 115.8L-232.276 116.573L-232.268 116.566L-232.26 116.559L-232.911 115.8ZM-231.111 93.2L-231.836 93.8887L-231.111 93.2ZM-240.711 87L-241.105 87.9191L-241.085 87.9275L-241.066 87.935L-240.711 87ZM-256.311 81.8L-256.593 82.7594L-256.581 82.763L-256.311 81.8ZM-278.511 74L-278.941 74.9029L-278.928 74.909L-278.915 74.9147L-278.511 74ZM-293.111 62.2L-293.911 62.8L-293.903 62.8112L-293.894 62.8222L-293.111 62.2ZM-292.911 19.4L-292.082 19.9588L-292.911 19.4ZM-275.511 5.39999L-275.117 6.31914L-275.11 6.31618L-275.103 6.31313L-275.511 5.39999ZM-214.911 11L-215.531 11.7843L-215.525 11.7894L-215.518 11.7943L-214.911 11ZM-199.911 40.2V41.2H-198.834L-198.914 40.1257L-199.911 40.2ZM-230.711 40.2L-231.709 40.2555L-231.657 41.2H-230.711V40.2ZM-236.911 28.4L-237.562 29.1593L-237.547 29.1717L-237.532 29.1835L-236.911 28.4ZM-265.111 27.8L-265.754 27.0343L-265.762 27.0408L-265.769 27.0474L-265.111 27.8ZM-266.311 49.4L-267.037 50.0877L-267.018 50.1074L-266.999 50.1259L-266.311 49.4ZM-257.111 55.4L-257.517 56.3138L-257.497 56.3227L-257.477 56.3307L-257.111 55.4ZM-241.511 60.6L-241.798 61.5578L-241.793 61.5594L-241.511 60.6ZM-204.511 80.6L-205.301 81.2126L-204.511 80.6ZM-204.111 122.4L-204.967 121.883L-204.111 122.4ZM-221.111 137.8L-220.664 138.694L-220.657 138.691L-220.651 138.688L-221.111 137.8ZM-247.711 142.4C-257.329 142.4 -265.994 140.753 -273.721 137.479L-274.501 139.321C-266.495 142.713 -257.56 144.4 -247.711 144.4V142.4ZM-273.715 137.482C-281.298 134.213 -287.282 129.522 -291.701 123.414L-293.321 124.586C-288.673 131.012 -282.39 135.92 -274.507 139.318L-273.715 137.482ZM-291.701 123.414C-296.101 117.331 -298.381 110.135 -298.511 101.784L-300.511 101.816C-300.375 110.532 -297.987 118.136 -293.321 124.586L-291.701 123.414ZM-299.511 102.8H-269.511V100.8H-299.511V102.8ZM-270.508 101.87C-270.094 107.81 -268.009 112.598 -264.19 116.134L-262.832 114.666C-266.213 111.535 -268.128 107.256 -268.513 101.73L-270.508 101.87ZM-264.177 116.146C-260.214 119.684 -254.886 121.4 -248.311 121.4V119.4C-254.536 119.4 -259.341 117.782 -262.845 114.654L-264.177 116.146ZM-248.311 121.4C-241.628 121.4 -236.243 119.831 -232.276 116.573L-233.546 115.027C-237.046 117.902 -241.928 119.4 -248.311 119.4V121.4ZM-232.26 116.559C-228.298 113.163 -226.311 108.748 -226.311 103.4H-228.311C-228.311 108.185 -230.058 112.037 -233.562 115.041L-232.26 116.559ZM-226.311 103.4C-226.311 99.0447 -227.654 95.3873 -230.386 92.5112L-231.836 93.8887C-229.501 96.3461 -228.311 99.4886 -228.311 103.4H-226.311ZM-230.386 92.5112C-233.035 89.7229 -236.367 87.5782 -240.356 86.065L-241.066 87.935C-237.322 89.3551 -234.254 91.3438 -231.836 93.8887L-230.386 92.5112ZM-240.317 86.0809C-244.109 84.4557 -249.357 82.7086 -256.041 80.837L-256.581 82.763C-249.931 84.6248 -244.779 86.3443 -241.105 87.9191L-240.317 86.0809ZM-256.029 80.8406C-265.072 78.1807 -272.428 75.5947 -278.107 73.0853L-278.915 74.9147C-273.128 77.4719 -265.683 80.0859 -256.593 82.7594L-256.029 80.8406ZM-278.081 73.0971C-283.534 70.5005 -288.283 66.6672 -292.328 61.5778L-293.894 62.8222C-289.673 68.1328 -284.688 72.1662 -278.941 74.9029L-278.081 73.0971ZM-292.311 61.6C-296.145 56.4878 -298.111 49.6526 -298.111 41H-300.111C-300.111 49.9474 -298.077 57.2455 -293.911 62.8L-292.311 61.6ZM-298.111 41C-298.111 32.9081 -296.091 25.908 -292.082 19.9588L-293.74 18.8411C-297.998 25.1587 -300.111 32.5585 -300.111 41H-298.111ZM-292.082 19.9588C-288.066 14.0005 -282.425 9.45113 -275.117 6.31914L-275.905 4.48085C-283.53 7.74886 -289.489 12.5328 -293.74 18.8411L-292.082 19.9588ZM-275.103 6.31313C-267.785 3.04617 -259.395 1.4 -249.911 1.4V-0.599998C-259.627 -0.599998 -268.303 1.08717 -275.919 4.48685L-275.103 6.31313ZM-249.911 1.4C-235.676 1.4 -224.246 4.89075 -215.531 11.7843L-214.291 10.2157C-223.443 2.97591 -235.346 -0.599998 -249.911 -0.599998V1.4ZM-215.518 11.7943C-206.703 18.5356 -201.823 27.9934 -200.908 40.2743L-198.914 40.1257C-199.866 27.34 -204.986 17.3311 -214.303 10.2056L-215.518 11.7943ZM-199.911 39.2H-230.711V41.2H-199.911V39.2ZM-229.712 40.1445C-229.995 35.0506 -232.206 30.8554 -236.29 27.6165L-237.532 29.1835C-233.883 32.0779 -231.96 35.7494 -231.709 40.2555L-229.712 40.1445ZM-236.26 27.6407C-240.22 24.2466 -245.473 22.6 -251.911 22.6V24.6C-245.816 24.6 -241.069 26.1534 -237.562 29.1593L-236.26 27.6407ZM-251.911 22.6C-257.551 22.6 -262.198 24.0474 -265.754 27.0343L-264.468 28.5657C-261.357 25.9526 -257.204 24.6 -251.911 24.6V22.6ZM-265.769 27.0474C-269.24 30.0838 -270.911 34.4574 -270.911 40H-268.911C-268.911 34.876 -267.382 31.1162 -264.452 28.5526L-265.769 27.0474ZM-270.911 40C-270.911 43.9696 -269.626 47.3549 -267.037 50.0877L-265.585 48.7122C-267.796 46.3784 -268.911 43.4971 -268.911 40H-270.911ZM-266.999 50.1259C-264.373 52.6135 -261.208 54.6735 -257.517 56.3138L-256.705 54.4862C-260.214 52.9265 -263.182 50.9865 -265.623 48.674L-266.999 50.1259ZM-257.477 56.3307C-253.706 57.8122 -248.475 59.5547 -241.798 61.5578L-241.224 59.6422C-247.88 57.6453 -253.05 55.9211 -256.745 54.4692L-257.477 56.3307ZM-241.793 61.5594C-232.753 64.2181 -225.405 66.8686 -219.733 69.5067L-218.889 67.6933C-224.684 64.9981 -232.135 62.3152 -241.229 59.6406L-241.793 61.5594ZM-219.733 69.5067C-214.154 72.1017 -209.344 75.9966 -205.301 81.2126L-203.721 79.9874C-207.945 74.5367 -213.002 70.4317 -218.889 67.6933L-219.733 69.5067ZM-205.301 81.2126C-201.338 86.3261 -199.311 93.0914 -199.311 101.6H-197.311C-197.311 92.7753 -199.417 85.5405 -203.721 79.9874L-205.301 81.2126ZM-199.311 101.6C-199.311 108.884 -201.194 115.639 -204.967 121.883L-203.255 122.917C-199.294 116.361 -197.311 109.249 -197.311 101.6H-199.311ZM-204.967 121.883C-208.727 128.106 -214.247 133.119 -221.571 136.912L-220.651 138.688C-213.042 134.747 -207.229 129.494 -203.255 122.917L-204.967 121.883ZM-221.558 136.906C-228.858 140.555 -237.564 142.4 -247.711 142.4V144.4C-237.324 144.4 -228.297 142.511 -220.664 138.694L-221.558 136.906ZM-40.7797 115.4L-39.8346 115.073L-40.0674 114.4H-40.7797V115.4ZM-96.3797 115.4V114.4H-97.0919L-97.3248 115.073L-96.3797 115.4ZM-105.58 142V143H-104.867L-104.635 142.327L-105.58 142ZM-134.98 142L-135.921 141.662L-136.401 143H-134.98V142ZM-84.7797 2.19999V1.19999H-85.4831L-85.7208 1.86203L-84.7797 2.19999ZM-52.1797 2.19999L-51.2385 1.86203L-51.4763 1.19999H-52.1797V2.19999ZM-1.97968 142V143H-0.558105L-1.03851 141.662L-1.97968 142ZM-31.5797 142L-32.5247 142.327L-32.2919 143H-31.5797V142ZM-48.3797 93V94H-46.9756L-47.4346 92.6731L-48.3797 93ZM-68.5797 34.6L-67.6346 34.2731L-68.5797 31.5408L-69.5247 34.2731L-68.5797 34.6ZM-88.7797 93L-89.7247 92.6731L-90.1837 94H-88.7797V93ZM-40.7797 114.4H-96.3797V116.4H-40.7797V114.4ZM-97.3248 115.073L-106.525 141.673L-104.635 142.327L-95.4346 115.727L-97.3248 115.073ZM-105.58 141H-134.98V143H-105.58V141ZM-134.039 142.338L-83.8385 2.53794L-85.7208 1.86203L-135.921 141.662L-134.039 142.338ZM-84.7797 3.19999H-52.1797V1.19999H-84.7797V3.19999ZM-53.1208 2.53794L-2.92084 142.338L-1.03851 141.662L-51.2385 1.86203L-53.1208 2.53794ZM-1.97968 141H-31.5797V143H-1.97968V141ZM-30.6346 141.673L-39.8346 115.073L-41.7247 115.727L-32.5247 142.327L-30.6346 141.673ZM-47.4346 92.6731L-67.6346 34.2731L-69.5247 34.9269L-49.3248 93.3269L-47.4346 92.6731ZM-69.5247 34.2731L-89.7247 92.6731L-87.8346 93.3269L-67.6346 34.9269L-69.5247 34.2731ZM-88.7797 94H-48.3797V92H-88.7797V94ZM136.184 142V143H137.184V142H136.184ZM108.184 142L107.35 142.552L107.647 143H108.184V142ZM44.7844 46.2L45.6183 45.6481L43.7844 42.877V46.2H44.7844ZM44.7844 142V143H45.7844V142H44.7844ZM16.7844 142H15.7844V143H16.7844V142ZM16.7844 2.19999V1.19999H15.7844V2.19999H16.7844ZM44.7844 2.19999L45.6188 1.6489L45.3223 1.19999H44.7844V2.19999ZM108.184 98.2L107.35 98.7511L109.184 101.529V98.2H108.184ZM108.184 2.19999V1.19999H107.184V2.19999H108.184ZM136.184 2.19999H137.184V1.19999H136.184V2.19999ZM136.184 141H108.184V143H136.184V141ZM109.018 141.448L45.6183 45.6481L43.9504 46.7519L107.35 142.552L109.018 141.448ZM43.7844 46.2V142H45.7844V46.2H43.7844ZM44.7844 141H16.7844V143H44.7844V141ZM17.7844 142V2.19999H15.7844V142H17.7844ZM16.7844 3.19999H44.7844V1.19999H16.7844V3.19999ZM43.95 2.75108L107.35 98.7511L109.019 97.6489L45.6188 1.6489L43.95 2.75108ZM109.184 98.2V2.19999H107.184V98.2H109.184ZM108.184 3.19999H136.184V1.19999H108.184V3.19999ZM135.184 2.19999V142H137.184V2.19999H135.184ZM251.255 11L250.795 11.8879L250.799 11.8901L251.255 11ZM277.055 35.6L276.183 36.0903L276.187 36.0968L276.191 36.1032L277.055 35.6ZM277.055 109.2L276.191 108.697L276.188 108.7L277.055 109.2ZM251.255 133.4L250.799 132.51L250.795 132.512L251.255 133.4ZM163.855 142H162.855V143H163.855V142ZM163.855 2.39999V1.39999H162.855V2.39999H163.855ZM245.655 106.2L244.948 105.493L245.655 106.2ZM245.655 38.4L244.936 39.0954L244.942 39.1012L245.655 38.4ZM191.855 26V25H190.855V26H191.855ZM191.855 118.2H190.855V119.2H191.855V118.2ZM212.655 3.39999C227.189 3.39999 239.893 6.2402 250.795 11.8879L251.715 10.1121C240.483 4.29312 227.453 1.39999 212.655 1.39999V3.39999ZM250.799 11.8901C261.829 17.5366 270.282 25.5999 276.183 36.0903L277.926 35.1097C271.827 24.2668 263.08 15.93 251.71 10.1098L250.799 11.8901ZM276.191 36.1032C282.222 46.4622 285.255 58.5501 285.255 72.4H287.255C287.255 58.2499 284.154 45.8044 277.919 35.0968L276.191 36.1032ZM285.255 72.4C285.255 86.2499 282.222 98.3378 276.191 108.697L277.919 109.703C284.154 98.9956 287.255 86.5501 287.255 72.4H285.255ZM276.188 108.7C270.29 118.925 261.836 126.86 250.799 132.51L251.71 134.29C263.073 128.473 271.82 120.275 277.921 109.7L276.188 108.7ZM250.795 132.512C239.893 138.16 227.189 141 212.655 141V143C227.453 143 240.483 140.107 251.715 134.288L250.795 132.512ZM212.655 141H163.855V143H212.655V141ZM164.855 142V2.39999H162.855V142H164.855ZM163.855 3.39999H212.655V1.39999H163.855V3.39999ZM211.655 119.2C226.505 119.2 238.123 115.146 246.362 106.907L244.948 105.493C237.186 113.254 226.138 117.2 211.655 117.2V119.2ZM246.362 106.907C254.599 98.6703 258.655 87.1196 258.655 72.4H256.655C256.655 86.7471 252.711 97.7297 244.948 105.493L246.362 106.907ZM258.655 72.4C258.655 57.6796 254.598 46.0667 246.368 37.6988L244.942 39.1012C252.711 47 256.655 58.0538 256.655 72.4H258.655ZM246.373 37.7046C238.136 29.1932 226.514 25 211.655 25V27C226.129 27 237.173 31.0734 244.936 39.0954L246.373 37.7046ZM211.655 25H191.855V27H211.655V25ZM190.855 26V118.2H192.855V26H190.855ZM191.855 119.2H211.655V117.2H191.855V119.2ZM376.67 138.4L376.275 139.318L376.28 139.321L376.67 138.4ZM358.27 124L357.46 124.586L358.27 124ZM351.27 101.8V100.8H350.255L350.27 101.816L351.27 101.8ZM381.27 101.8L382.268 101.73L382.203 100.8H381.27V101.8ZM387.27 115.4L386.591 116.134L386.598 116.14L386.604 116.146L387.27 115.4ZM417.87 115.8L418.505 116.573L418.513 116.566L418.521 116.559L417.87 115.8ZM419.67 93.2L418.945 93.8887L419.67 93.2ZM410.07 87L409.676 87.9191L409.696 87.9275L409.716 87.935L410.07 87ZM394.47 81.8L394.188 82.7594L394.201 82.763L394.47 81.8ZM372.27 74L371.84 74.9029L371.853 74.909L371.866 74.9147L372.27 74ZM357.67 62.2L356.87 62.8L356.879 62.8112L356.887 62.8222L357.67 62.2ZM357.87 19.4L358.7 19.9588L357.87 19.4ZM375.27 5.39999L375.664 6.31914L375.671 6.31618L375.678 6.31313L375.27 5.39999ZM435.87 11L435.25 11.7843L435.256 11.7894L435.263 11.7943L435.87 11ZM450.87 40.2V41.2H451.948L451.868 40.1257L450.87 40.2ZM420.07 40.2L419.072 40.2555L419.124 41.2H420.07V40.2ZM413.87 28.4L413.219 29.1593L413.234 29.1717L413.249 29.1835L413.87 28.4ZM385.67 27.8L385.027 27.0343L385.019 27.0408L385.012 27.0474L385.67 27.8ZM384.47 49.4L383.744 50.0877L383.763 50.1074L383.783 50.1259L384.47 49.4ZM393.67 55.4L393.264 56.3138L393.284 56.3227L393.305 56.3307L393.67 55.4ZM409.27 60.6L408.983 61.5578L408.988 61.5594L409.27 60.6ZM446.27 80.6L445.48 81.2126L446.27 80.6ZM446.67 122.4L445.814 121.883L446.67 122.4ZM429.67 137.8L430.118 138.694L430.124 138.691L430.13 138.688L429.67 137.8ZM403.07 142.4C393.453 142.4 384.788 140.753 377.06 137.479L376.28 139.321C384.286 142.713 393.222 144.4 403.07 144.4V142.4ZM377.066 137.482C369.483 134.213 363.499 129.522 359.081 123.414L357.46 124.586C362.108 131.012 368.391 135.92 376.275 139.318L377.066 137.482ZM359.081 123.414C354.68 117.331 352.401 110.135 352.27 101.784L350.27 101.816C350.407 110.532 352.794 118.136 357.46 124.586L359.081 123.414ZM351.27 102.8H381.27V100.8H351.27V102.8ZM380.273 101.87C380.687 107.81 382.773 112.598 386.591 116.134L387.95 114.666C384.568 111.535 382.653 107.256 382.268 101.73L380.273 101.87ZM386.604 116.146C390.568 119.684 395.895 121.4 402.47 121.4V119.4C396.245 119.4 391.44 117.782 387.936 114.654L386.604 116.146ZM402.47 121.4C409.154 121.4 414.539 119.831 418.505 116.573L417.236 115.027C413.735 117.902 408.854 119.4 402.47 119.4V121.4ZM418.521 116.559C422.484 113.163 424.47 108.748 424.47 103.4H422.47C422.47 108.185 420.724 112.037 417.219 115.041L418.521 116.559ZM424.47 103.4C424.47 99.0447 423.128 95.3873 420.395 92.5112L418.945 93.8887C421.28 96.3461 422.47 99.4886 422.47 103.4H424.47ZM420.395 92.5112C417.746 89.7229 414.414 87.5782 410.425 86.065L409.716 87.935C413.459 89.3551 416.528 91.3438 418.945 93.8887L420.395 92.5112ZM410.464 86.0809C406.672 84.4557 401.424 82.7086 394.74 80.837L394.201 82.763C400.85 84.6248 406.002 86.3443 409.676 87.9191L410.464 86.0809ZM394.752 80.8406C385.709 78.1807 378.354 75.5947 372.674 73.0853L371.866 74.9147C377.654 77.4719 385.099 80.0859 394.188 82.7594L394.752 80.8406ZM372.7 73.0971C367.247 70.5005 362.499 66.6672 358.453 61.5778L356.887 62.8222C361.109 68.1328 366.093 72.1662 371.84 74.9029L372.7 73.0971ZM358.47 61.6C354.636 56.4878 352.67 49.6526 352.67 41H350.67C350.67 49.9474 352.704 57.2455 356.87 62.8L358.47 61.6ZM352.67 41C352.67 32.9081 354.69 25.908 358.7 19.9588L357.041 18.8411C352.784 25.1587 350.67 32.5585 350.67 41H352.67ZM358.7 19.9588C362.715 14.0005 368.356 9.45113 375.664 6.31914L374.876 4.48085C367.251 7.74886 361.292 12.5328 357.041 18.8411L358.7 19.9588ZM375.678 6.31313C382.996 3.04617 391.387 1.4 400.87 1.4V-0.599998C391.154 -0.599998 382.478 1.08717 374.863 4.48685L375.678 6.31313ZM400.87 1.4C415.106 1.4 426.535 4.89075 435.25 11.7843L436.491 10.2157C427.339 2.97591 415.435 -0.599998 400.87 -0.599998V1.4ZM435.263 11.7943C444.078 18.5356 448.958 27.9934 449.873 40.2743L451.868 40.1257C450.915 27.34 445.796 17.3311 436.478 10.2056L435.263 11.7943ZM450.87 39.2H420.07V41.2H450.87V39.2ZM421.069 40.1445C420.786 35.0506 418.576 30.8554 414.492 27.6165L413.249 29.1835C416.898 32.0779 418.822 35.7494 419.072 40.2555L421.069 40.1445ZM414.521 27.6407C410.561 24.2466 405.308 22.6 398.87 22.6V24.6C404.965 24.6 409.713 26.1534 413.219 29.1593L414.521 27.6407ZM398.87 22.6C393.23 22.6 388.583 24.0474 385.027 27.0343L386.313 28.5657C389.424 25.9526 393.577 24.6 398.87 24.6V22.6ZM385.012 27.0474C381.542 30.0838 379.87 34.4574 379.87 40H381.87C381.87 34.876 383.399 31.1162 386.329 28.5526L385.012 27.0474ZM379.87 40C379.87 43.9696 381.155 47.3549 383.744 50.0877L385.196 48.7122C382.985 46.3784 381.87 43.4971 381.87 40H379.87ZM383.783 50.1259C386.408 52.6135 389.574 54.6735 393.264 56.3138L394.076 54.4862C390.567 52.9265 387.599 50.9865 385.158 48.674L383.783 50.1259ZM393.305 56.3307C397.076 57.8122 402.306 59.5547 408.983 61.5578L409.558 59.6422C402.901 57.6453 397.732 55.9211 394.036 54.4692L393.305 56.3307ZM408.988 61.5594C418.028 64.2181 425.377 66.8686 431.049 69.5067L431.892 67.6933C426.097 64.9981 418.646 62.3152 409.552 59.6406L408.988 61.5594ZM431.049 69.5067C436.628 72.1017 441.438 75.9966 445.48 81.2126L447.061 79.9874C442.836 74.5367 437.78 70.4317 431.892 67.6933L431.049 69.5067ZM445.48 81.2126C449.443 86.3261 451.47 93.0914 451.47 101.6H453.47C453.47 92.7753 451.364 85.5405 447.061 79.9874L445.48 81.2126ZM451.47 101.6C451.47 108.884 449.587 115.639 445.814 121.883L447.526 122.917C451.487 116.361 453.47 109.249 453.47 101.6H451.47ZM445.814 121.883C442.055 128.106 436.534 133.119 429.21 136.912L430.13 138.688C437.74 134.747 443.553 129.494 447.526 122.917L445.814 121.883ZM429.223 136.906C421.924 140.555 413.217 142.4 403.07 142.4V144.4C413.457 144.4 422.484 142.511 430.118 138.694L429.223 136.906ZM555.545 142L554.771 142.633L555.071 143H555.545V142ZM504.745 79.8L505.52 79.1674L503.745 76.9947V79.8H504.745ZM504.745 142V143H505.745V142H504.745ZM476.745 142H475.745V143H476.745V142ZM476.745 2.39999V1.39999H475.745V2.39999H476.745ZM504.745 2.39999H505.745V1.39999H504.745V2.39999ZM504.745 65H503.745V67.8193L505.522 65.6301L504.745 65ZM555.545 2.39999V1.39999H555.069L554.769 1.76987L555.545 2.39999ZM589.345 2.39999L590.114 3.03974L591.479 1.39999H589.345V2.39999ZM531.745 71.6L530.977 70.9603L530.442 71.6033L530.98 72.2436L531.745 71.6ZM590.945 142V143H593.093L591.711 141.356L590.945 142ZM556.32 141.367L505.52 79.1674L503.971 80.4326L554.771 142.633L556.32 141.367ZM503.745 79.8V142H505.745V79.8H503.745ZM504.745 141H476.745V143H504.745V141ZM477.745 142V2.39999H475.745V142H477.745ZM476.745 3.39999H504.745V1.39999H476.745V3.39999ZM503.745 2.39999V65H505.745V2.39999H503.745ZM505.522 65.6301L556.322 3.03012L554.769 1.76987L503.969 64.3699L505.522 65.6301ZM555.545 3.39999H589.345V1.39999H555.545V3.39999ZM588.577 1.76025L530.977 70.9603L532.514 72.2397L590.114 3.03974L588.577 1.76025ZM530.98 72.2436L590.18 142.644L591.711 141.356L532.511 70.9564L530.98 72.2436ZM590.945 141H555.545V143H590.945V141ZM637.363 2.39999H638.363V1.39999H637.363V2.39999ZM637.363 142V143H638.363V142H637.363ZM609.363 142H608.363V143H609.363V142ZM609.363 2.39999V1.39999H608.363V2.39999H609.363ZM636.363 2.39999V142H638.363V2.39999H636.363ZM637.363 141H609.363V143H637.363V141ZM610.363 142V2.39999H608.363V142H610.363ZM609.363 3.39999H637.363V1.39999H609.363V3.39999ZM693.027 119.8H692.027V120.8H693.027V119.8ZM739.027 119.8H740.027V118.8H739.027V119.8ZM739.027 142V143H740.027V142H739.027ZM665.027 142H664.027V143H665.027V142ZM665.027 2.39999V1.39999H664.027V2.39999H665.027ZM693.027 2.39999H694.027V1.39999H693.027V2.39999ZM693.027 120.8H739.027V118.8H693.027V120.8ZM738.027 119.8V142H740.027V119.8H738.027ZM739.027 141H665.027V143H739.027V141ZM666.027 142V2.39999H664.027V142H666.027ZM665.027 3.39999H693.027V1.39999H665.027V3.39999ZM692.027 2.39999V119.8H694.027V2.39999H692.027ZM784.823 119.8H783.823V120.8H784.823V119.8ZM830.823 119.8H831.823V118.8H830.823V119.8ZM830.823 142V143H831.823V142H830.823ZM756.823 142H755.823V143H756.823V142ZM756.823 2.39999V1.39999H755.823V2.39999H756.823ZM784.823 2.39999H785.823V1.39999H784.823V2.39999ZM784.823 120.8H830.823V118.8H784.823V120.8ZM829.823 119.8V142H831.823V119.8H829.823ZM830.823 141H756.823V143H830.823V141ZM757.823 142V2.39999H755.823V142H757.823ZM756.823 3.39999H784.823V1.39999H756.823V3.39999ZM783.823 2.39999V119.8H785.823V2.39999H783.823ZM870.42 138.4L870.025 139.318L870.03 139.321L870.42 138.4ZM852.02 124L851.21 124.586L852.02 124ZM845.02 101.8V100.8H844.005L844.02 101.816L845.02 101.8ZM875.02 101.8L876.018 101.73L875.953 100.8H875.02V101.8ZM881.02 115.4L880.341 116.134L880.348 116.14L880.354 116.146L881.02 115.4ZM911.62 115.8L912.255 116.573L912.263 116.566L912.271 116.559L911.62 115.8ZM913.42 93.2L912.695 93.8887L913.42 93.2ZM903.82 87L903.426 87.9191L903.446 87.9275L903.466 87.935L903.82 87ZM888.22 81.8L887.938 82.7594L887.951 82.763L888.22 81.8ZM866.02 74L865.59 74.9029L865.603 74.909L865.616 74.9147L866.02 74ZM851.42 62.2L850.62 62.8L850.629 62.8112L850.637 62.8222L851.42 62.2ZM851.62 19.4L852.45 19.9588L851.62 19.4ZM869.02 5.39999L869.414 6.31914L869.421 6.31618L869.428 6.31313L869.02 5.39999ZM929.62 11L929 11.7843L929.006 11.7894L929.013 11.7943L929.62 11ZM944.62 40.2V41.2H945.698L945.618 40.1257L944.62 40.2ZM913.82 40.2L912.822 40.2555L912.874 41.2H913.82V40.2ZM907.62 28.4L906.969 29.1593L906.984 29.1717L906.999 29.1835L907.62 28.4ZM879.42 27.8L878.777 27.0343L878.769 27.0408L878.762 27.0474L879.42 27.8ZM878.22 49.4L877.494 50.0877L877.513 50.1074L877.533 50.1259L878.22 49.4ZM887.42 55.4L887.014 56.3138L887.034 56.3227L887.055 56.3307L887.42 55.4ZM903.02 60.6L902.733 61.5578L902.738 61.5594L903.02 60.6ZM940.02 80.6L939.23 81.2126L940.02 80.6ZM940.42 122.4L939.564 121.883L940.42 122.4ZM923.42 137.8L923.868 138.694L923.874 138.691L923.88 138.688L923.42 137.8ZM896.82 142.4C887.203 142.4 878.538 140.753 870.81 137.479L870.03 139.321C878.036 142.713 886.972 144.4 896.82 144.4V142.4ZM870.816 137.482C863.233 134.213 857.249 129.522 852.831 123.414L851.21 124.586C855.858 131.012 862.141 135.92 870.025 139.318L870.816 137.482ZM852.831 123.414C848.43 117.331 846.151 110.135 846.02 101.784L844.02 101.816C844.157 110.532 846.544 118.136 851.21 124.586L852.831 123.414ZM845.02 102.8H875.02V100.8H845.02V102.8ZM874.023 101.87C874.437 107.81 876.523 112.598 880.341 116.134L881.7 114.666C878.318 111.535 876.403 107.256 876.018 101.73L874.023 101.87ZM880.354 116.146C884.318 119.684 889.645 121.4 896.22 121.4V119.4C889.995 119.4 885.19 117.782 881.686 114.654L880.354 116.146ZM896.22 121.4C902.904 121.4 908.289 119.831 912.255 116.573L910.986 115.027C907.485 117.902 902.604 119.4 896.22 119.4V121.4ZM912.271 116.559C916.234 113.163 918.22 108.748 918.22 103.4H916.22C916.22 108.185 914.474 112.037 910.969 115.041L912.271 116.559ZM918.22 103.4C918.22 99.0447 916.878 95.3873 914.145 92.5112L912.695 93.8887C915.03 96.3461 916.22 99.4886 916.22 103.4H918.22ZM914.145 92.5112C911.496 89.7229 908.164 87.5782 904.175 86.065L903.466 87.935C907.209 89.3551 910.278 91.3438 912.695 93.8887L914.145 92.5112ZM904.214 86.0809C900.422 84.4557 895.174 82.7086 888.49 80.837L887.951 82.763C894.6 84.6248 899.752 86.3443 903.426 87.9191L904.214 86.0809ZM888.502 80.8406C879.459 78.1807 872.104 75.5947 866.424 73.0853L865.616 74.9147C871.404 77.4719 878.849 80.0859 887.938 82.7594L888.502 80.8406ZM866.45 73.0971C860.997 70.5005 856.249 66.6672 852.203 61.5778L850.637 62.8222C854.859 68.1328 859.843 72.1662 865.59 74.9029L866.45 73.0971ZM852.22 61.6C848.386 56.4878 846.42 49.6526 846.42 41H844.42C844.42 49.9474 846.454 57.2455 850.62 62.8L852.22 61.6ZM846.42 41C846.42 32.9081 848.44 25.908 852.45 19.9588L850.791 18.8411C846.534 25.1587 844.42 32.5585 844.42 41H846.42ZM852.45 19.9588C856.465 14.0005 862.106 9.45113 869.414 6.31914L868.626 4.48085C861.001 7.74886 855.042 12.5328 850.791 18.8411L852.45 19.9588ZM869.428 6.31313C876.746 3.04617 885.137 1.4 894.62 1.4V-0.599998C884.904 -0.599998 876.228 1.08717 868.613 4.48685L869.428 6.31313ZM894.62 1.4C908.856 1.4 920.285 4.89075 929 11.7843L930.241 10.2157C921.089 2.97591 909.185 -0.599998 894.62 -0.599998V1.4ZM929.013 11.7943C937.828 18.5356 942.708 27.9934 943.623 40.2743L945.618 40.1257C944.665 27.34 939.546 17.3311 930.228 10.2056L929.013 11.7943ZM944.62 39.2H913.82V41.2H944.62V39.2ZM914.819 40.1445C914.536 35.0506 912.326 30.8554 908.242 27.6165L906.999 29.1835C910.648 32.0779 912.572 35.7494 912.822 40.2555L914.819 40.1445ZM908.271 27.6407C904.311 24.2466 899.058 22.6 892.62 22.6V24.6C898.715 24.6 903.463 26.1534 906.969 29.1593L908.271 27.6407ZM892.62 22.6C886.98 22.6 882.333 24.0474 878.777 27.0343L880.063 28.5657C883.174 25.9526 887.327 24.6 892.62 24.6V22.6ZM878.762 27.0474C875.292 30.0838 873.62 34.4574 873.62 40H875.62C875.62 34.876 877.149 31.1162 880.079 28.5526L878.762 27.0474ZM873.62 40C873.62 43.9696 874.905 47.3549 877.494 50.0877L878.946 48.7122C876.735 46.3784 875.62 43.4971 875.62 40H873.62ZM877.533 50.1259C880.158 52.6135 883.324 54.6735 887.014 56.3138L887.826 54.4862C884.317 52.9265 881.349 50.9865 878.908 48.674L877.533 50.1259ZM887.055 56.3307C890.826 57.8122 896.056 59.5547 902.733 61.5578L903.308 59.6422C896.651 57.6453 891.482 55.9211 887.786 54.4692L887.055 56.3307ZM902.738 61.5594C911.778 64.2181 919.127 66.8686 924.799 69.5067L925.642 67.6933C919.847 64.9981 912.396 62.3152 903.302 59.6406L902.738 61.5594ZM924.799 69.5067C930.378 72.1017 935.188 75.9966 939.23 81.2126L940.811 79.9874C936.586 74.5367 931.53 70.4317 925.642 67.6933L924.799 69.5067ZM939.23 81.2126C943.193 86.3261 945.22 93.0914 945.22 101.6H947.22C947.22 92.7753 945.114 85.5405 940.811 79.9874L939.23 81.2126ZM945.22 101.6C945.22 108.884 943.337 115.639 939.564 121.883L941.276 122.917C945.237 116.361 947.22 109.249 947.22 101.6H945.22ZM939.564 121.883C935.805 128.106 930.284 133.119 922.96 136.912L923.88 138.688C931.49 134.747 937.303 129.494 941.276 122.917L939.564 121.883ZM922.973 136.906C915.674 140.555 906.967 142.4 896.82 142.4V144.4C907.207 144.4 916.234 142.511 923.868 138.694L922.973 136.906Z" fill="#999999" fill-opacity="0.2" mask="url(#path-1-outside-1_232_90)"/>
</svg>
