<svg width="18" height="14" viewBox="0 0 18 14" fill="none" xmlns="http://www.w3.org/2000/svg">
<path d="M3.16666 0.333252H14.8333C15.4964 0.333252 16.1323 0.596644 16.6011 1.06549C17.0699 1.53433 17.3333 2.17021 17.3333 2.83325V11.1666C17.3333 11.8296 17.0699 12.4655 16.6011 12.9344C16.1323 13.4032 15.4964 13.6666 14.8333 13.6666H3.16666C2.50362 13.6666 1.86774 13.4032 1.39889 12.9344C0.930054 12.4655 0.666662 11.8296 0.666662 11.1666V2.83325C0.666662 2.17021 0.930054 1.53433 1.39889 1.06549C1.86774 0.596644 2.50362 0.333252 3.16666 0.333252ZM3.16666 1.99992L8.58333 5.72492C8.71001 5.79806 8.85371 5.83656 9 5.83656C9.14628 5.83656 9.28998 5.79806 9.41666 5.72492L14.8333 1.99992H3.16666Z" fill="#F8F8F8"/>
</svg>
